<?xml version="1.0" encoding="utf-8"?>
<!-- Generator: Adobe Illustrator 24.2.3, SVG Export Plug-In . SVG Version: 6.00 Build 0)  -->
<svg version="1.1" id="Graphic_Elements" xmlns="http://www.w3.org/2000/svg"
	 x="0px"
	 y="0px" viewBox="0 0 1200 1200" style="enable-background:new 0 0 1200 1200;"
	 xml:space="preserve">
<style type="text/css">
	.st0{fill:#E0A124;fill-opacity:0.43;stroke:#FED3A7;stroke-width:1.18;stroke-miterlimit:11.34;}
	.st1{fill:#F0C15F;stroke:#E9AE5C;stroke-width:6.47;stroke-miterlimit:11.34;stroke-opacity:0.48;}
	.st2{fill:#F5FFFF;}
</style>
    <g>
	<path class="st0" d="M104.7,352.1l616.5-0.4c37.7,0.2,37.6-24.7,49.4-55c5.5-14.2,12.4-24.9,19.7-33.1l-247.1-0.7
		c-43.3-0.3-45.8-60.3-45.8-60.3c-1.7-23-33.6-24.7-33.6-24.7L166.6,179c-31.6,0.1-33.1,3.5-40.1,16.1
		c-7.6,13.5-17.6,38.6-18.6,41.3C86.6,280,89.7,292,89.7,292l-0.3,62.3C98.1,352,104.7,352.1,104.7,352.1z M119.8,306.1h7.8V292
		h641.2c0,0-3.5,7-6.1,13.1c-2.2,4.9-5.2,14.4-8,20.4c-7.7,16.5-17.1,22.8-34.2,22.6l-600.7-0.8V306.1z"/>
        <path class="st1" d="M1121.5,239l-273.1-1.2c0,0-32-3.6-58.1,25.7c-7.3,8.2-14.1,19-19.7,33.1c-11.8,30.3-11.7,55.2-49.4,55
		l-616.5,0.4c0,0-6.6-0.1-15.3,2.1c-16.4,4.2-40,16.8-39.4,54.4l26.4,570.1c0,0-3.9,43.3,38.3,43.3l976.7,0.1
		c0,0,28.4,2.2,28.5-26.4l29.8-723.3C1149.8,272.4,1154.5,237.8,1121.5,239z"/>
        <path class="st2" d="M754.7,325.5c2.8-6,5.8-15.5,8-20.4c2.7-6.1,6.1-13.1,6.1-13.1H127.6v14.1h-7.8v41.1l600.7,0.8
		C737.5,348.3,747,341.9,754.7,325.5z"/>
</g>
</svg>
