<?xml version="1.0" encoding="UTF-8" standalone="no"?>
<!-- Created with Inkscape (http://www.inkscape.org/) -->

<svg
   width="16.867352mm"
   height="10.00016mm"
   viewBox="0 0 16.867352 10.00016"
   version="1.1"
   id="svg1277"
   inkscape:version="1.1.2 (0a00cf5339, 2022-02-04)"
   sodipodi:docname="logo.svg"
   xmlns:inkscape="http://www.inkscape.org/namespaces/inkscape"
   xmlns:sodipodi="http://sodipodi.sourceforge.net/DTD/sodipodi-0.dtd"
   xmlns="http://www.w3.org/2000/svg"
   xmlns:svg="http://www.w3.org/2000/svg">
  <sodipodi:namedview
     id="namedview1279"
     pagecolor="#ffffff"
     bordercolor="#666666"
     borderopacity="1.0"
     inkscape:pageshadow="2"
     inkscape:pageopacity="0.0"
     inkscape:pagecheckerboard="0"
     inkscape:document-units="mm"
     showgrid="false"
     inkscape:zoom="3.0075197"
     inkscape:cx="46.383737"
     inkscape:cy="25.436243"
     inkscape:window-width="1850"
     inkscape:window-height="1016"
     inkscape:window-x="70"
     inkscape:window-y="27"
     inkscape:window-maximized="1"
     inkscape:current-layer="layer1" />
  <defs
     id="defs1274" />
  <g
     inkscape:label="Ebene 1"
     inkscape:groupmode="layer"
     id="layer1"
     transform="translate(-95.727481,-101.97622)">
    <g
       id="g1067"
       transform="matrix(1.0039118,0,0,1.6933062,-0.40745726,-74.167344)">
      <path
         d="m 103.07214,111.97638 v -10.00016 h -0.34216 v 10.00016 h 0.34216"
         style="fill:#231f20;fill-opacity:1;fill-rule:nonzero;stroke:none;stroke-width:0.0352778"
         id="path126"
         sodipodi:nodetypes="ccccc" />
      <path
         d="m 97.587558,105.30077 c 0.162194,-0.22906 0.534265,-0.94467 1.621536,-0.94467 0.766184,0 1.173396,0.30526 1.335316,0.45794 0.46758,0.45776 0.49608,1.11619 0.49608,1.48784 v 3.17336 h -1.965067 v -2.78915 c 0,-0.0562 -0.009,-0.70831 -0.667656,-0.70831 -0.696599,0 -0.715204,0.63969 -0.715204,0.81097 v 2.68649 h -1.965082 v -4.99496 h 1.860077 v 0.82049"
         style="fill:#231f20;fill-opacity:1;fill-rule:nonzero;stroke:none;stroke-width:0.0352778"
         id="path128" />
      <path
         d="m 111.79266,104.36506 c -0.36822,0 -0.66699,0.29905 -0.66699,0.66696 0,0.36837 0.29877,0.66671 0.66699,0.66671 0.33761,0 0.48712,-0.24362 0.49125,-0.23124 0.19089,0.58265 -0.82159,3.60357 -2.20553,3.60357 -0.44786,0 -0.58636,-0.36242 -0.58636,-0.83166 0,-0.55491 0.15985,-1.12035 0.36312,-1.88859 0.2129,-0.75724 0.40513,-1.48276 0.51191,-1.87053 h -1.33321 c -0.18193,0.65482 -1.48622,4.49501 -2.59281,4.49501 -0.13847,0 -0.28801,-0.14952 -0.28801,-0.41603 0,-0.14925 0.12816,-0.67221 0.19226,-0.86416 l 0.43681,-1.49338 c 0.0958,-0.3098 0.23499,-0.71426 0.23499,-1.01328 0,-0.52257 -0.36245,-0.8213 -0.78896,-0.8213 -1.20576,0 -1.7067,1.07692 -1.95294,1.51444 l 0.20327,0.12816 c 0.11741,-0.1918 0.6507,-1.0983 1.01311,-1.0983 0.0538,0 0.0965,0.0634 0.0965,0.25562 0,0.12817 -0.0744,0.41593 -0.14954,0.68256 l -0.45886,1.51475 c -0.0744,0.27768 -0.25633,0.81097 -0.25633,1.19489 0,0.70404 0.534,1.05613 1.00323,1.05613 1.71013,0 2.45357,-2.06983 2.69886,-2.6668 l 0.0214,0.0214 c -0.0324,0.1174 -0.18189,0.74648 -0.18189,1.06687 0,0.91709 0.40996,1.57855 1.30566,1.57855 2.59733,0 4.01465,-5.25033 2.22211,-5.25033"
         style="fill:#231f20;fill-opacity:1;fill-rule:nonzero;stroke:none;stroke-width:0.0352778"
         id="path130" />
    </g>
  </g>
</svg>
