<?xml version="1.0" encoding="UTF-8" standalone="no"?>
<!-- Uploaded to: SVG Repo, www.svgrepo.com, Generator: SVG Repo Mixer Tools -->

<svg
   height="800"
   width="800"
   version="1.1"
   id="Layer_1"
   viewBox="0 0 512 512"
   xml:space="preserve"
   sodipodi:docname="gas-pipe-valve-svgrepo-com.svg"
   xmlns:inkscape="http://www.inkscape.org/namespaces/inkscape"
   xmlns:sodipodi="http://sodipodi.sourceforge.net/DTD/sodipodi-0.dtd"
   xmlns="http://www.w3.org/2000/svg"
   xmlns:svg="http://www.w3.org/2000/svg"><defs
   id="defs36" /><sodipodi:namedview
   id="namedview36"
   pagecolor="#ffffff"
   bordercolor="#999999"
   borderopacity="1"
   inkscape:showpageshadow="2"
   inkscape:pageopacity="0"
   inkscape:pagecheckerboard="0"
   inkscape:deskcolor="#d1d1d1" />&#10;<g
   transform="translate(1,1)"
   id="g36">&#10;	&#10;	&#10;	&#10;	&#10;	&#10;	&#10;	&#10;	<g
   id="g13"
   transform="translate(110.08)">&#10;		<path
   style="fill:#ffdd09"
   d="M 71.533,502.467 H 208.066 V 331.8 H 71.533 Z"
   id="path11" />&#10;		<path
   style="fill:#ffdd09"
   d="m 208.067,222.573 v -61.44 H 71.533 v 61.44 c 13.653,4.267 28.16,6.827 42.667,6.827 h 4.267 l -12.8,25.6 12.8,25.6 H 114.2 c -14.507,0 -29.013,2.56 -42.667,6.827 V 331.8 H 208.066 V 287.427 C 194.413,283.16 179.906,280.6 165.399,280.6 h -4.267 l 12.8,-25.6 -12.8,-25.6 h 4.267 c 14.508,0 29.014,-2.56 42.668,-6.827"
   id="path12" />&#10;		<path
   style="fill:#ffdd09"
   d="M 71.533,161.133 H 208.066 V 7.533 H 71.533 Z"
   id="path13" />&#10;	</g>&#10;	<path
   style="fill:#fd9808"
   d="m 301.08,502.467 h 17.067 V 7.533 H 301.08 Z"
   id="path14" />&#10;	<path
   style="fill:#ffffff"
   d="M 181.613,502.467 H 198.68 V 7.533 h -17.067 z"
   id="path15" />&#10;	<g
   id="g17"
   transform="translate(110.08)">&#10;		<path
   style="fill:#fcc309"
   d="m 105.667,255 12.8,-25.6 H 114.2 c -22.187,0 -44.373,-5.12 -64.853,-15.36 -9.387,-5.12 -20.48,1.707 -20.48,12.8 v 56.32 c 0,10.24 11.093,17.067 20.48,12.8 20.48,-10.24 42.667,-15.36 64.853,-15.36 h 4.267 z"
   id="path16" />&#10;		<path
   style="fill:#fcc309"
   d="m 173.933,255 -12.8,25.6 h 4.267 c 22.187,0 44.373,5.12 64.853,15.36 9.387,5.12 20.48,-2.56 20.48,-12.8 v -56.32 c 0,-10.24 -11.093,-17.067 -20.48,-12.8 -20.48,10.24 -42.667,15.36 -64.853,15.36 h -4.267 z"
   id="path17" />&#10;	</g>&#10;	<path
   style="fill:#fd9808"
   d="m 340.333,214.04 c -0.853,0.853 -1.707,0.853 -2.56,0.853 3.413,2.56 5.973,6.827 5.973,11.947 v 56.32 c 0,5.12 -2.56,8.533 -5.973,11.093 0.853,0 1.707,0.853 2.56,0.853 9.387,5.12 20.48,-2.56 20.48,-12.8 v -56.32 c 0,-9.386 -11.093,-16.213 -20.48,-11.946"
   id="path18" />&#10;	<path
   style="fill:#ffffff"
   d="m 159.427,214.04 c 0.853,0.853 1.707,0.853 2.56,0.853 -3.413,3.413 -5.973,7.68 -5.973,11.947 v 56.32 c 0,5.12 2.56,8.533 5.973,11.093 -0.853,0 -1.707,0.853 -2.56,0.853 -9.387,5.973 -20.48,-0.853 -20.48,-11.947 v -56.32 c 0,-10.239 11.093,-17.066 20.48,-12.799"
   id="path19" />&#10;	<path
   style="fill:#fd9808"
   d="m 284.013,255 -17.067,34.133 H 232.813 L 215.747,255 232.814,220.867 h 34.133 z"
   id="path20" />&#10;	<path
   style="fill:#54c9fd"
   d="m 215.747,101.4 h 68.267 V 41.667 h -68.267 z"
   id="path21" />&#10;	<path
   style="fill:#33a9f8"
   d="m 258.413,101.4 h 25.6 V 41.667 h -25.6 z"
   id="path22" />&#10;	<path
   d="M 318.147,169.667 H 181.613 c -5.12,0 -8.533,-3.413 -8.533,-8.533 V 7.533 c 0,-5.12 3.413,-8.533 8.533,-8.533 h 136.533 c 5.12,0 8.533,3.413 8.533,8.533 v 153.6 c 0.001,5.12 -3.412,8.534 -8.532,8.534 z m -128,-17.067 H 309.614 V 16.067 H 190.147 Z"
   id="path23" />&#10;	<path
   d="M 318.147,511 H 181.613 c -5.12,0 -8.533,-3.413 -8.533,-8.533 V 331.8 c 0,-5.12 3.413,-8.533 8.533,-8.533 h 136.533 c 5.12,0 8.533,3.413 8.533,8.533 v 170.667 c 0.001,5.12 -3.412,8.533 -8.532,8.533 z m -128,-17.067 h 119.467 v -153.6 H 190.147 Z"
   id="path24" />&#10;	<path
   d="m 284.013,109.933 h -68.267 c -5.12,0 -8.533,-3.413 -8.533,-8.533 V 41.667 c 0,-5.12 3.413,-8.533 8.533,-8.533 h 68.267 c 5.12,0 8.533,3.413 8.533,8.533 V 101.4 c 0.001,5.12 -3.413,8.533 -8.533,8.533 z M 224.28,92.867 h 51.2 V 50.2 h -51.2 z"
   id="path25" />&#10;	&#10;	&#10;	&#10;	&#10;	<path
   d="m 266.947,297.667 h -34.133 c -3.413,0 -5.973,-1.707 -7.68,-4.267 l -17.067,-34.133 c -0.853,-2.56 -0.853,-5.12 0,-7.68 l 17.067,-34.133 c 1.707,-2.56 4.267,-5.12 7.68,-5.12 h 34.133 c 3.413,0 5.973,1.707 7.68,5.12 l 17.067,34.133 c 0.853,2.56 0.853,5.12 0,7.68 L 274.627,293.4 c -1.707,1.707 -4.267,4.267 -7.68,4.267 z M 237.933,280.6 h 23.893 l 12.8,-25.6 -12.8,-25.6 h -23.893 l -12.8,25.6 z"
   id="path30" />&#10;	<path
   d="m 153.453,305.347 c -4.267,0 -8.533,-0.853 -11.947,-3.413 -6.827,-4.267 -11.093,-11.093 -11.093,-18.773 v -56.32 c 0,-7.68 4.267,-15.36 11.093,-19.627 6.827,-4.267 15.36,-4.267 22.187,-0.853 18.773,9.387 40.107,14.507 60.587,14.507 h 4.267 c 2.56,0 5.973,1.707 6.827,4.267 1.707,2.56 1.707,5.973 0,8.533 L 225.133,255 l 11.093,21.333 c 1.707,2.56 0.853,5.973 0,8.533 -1.707,2.56 -4.267,4.267 -7.68,4.267 h -4.266 c -21.333,0 -42.667,5.12 -61.44,14.507 -2.56,0.853 -5.973,1.707 -9.387,1.707 z m 0,-84.48 c -1.707,0 -2.56,0.853 -3.413,0.853 -0.853,0 -2.56,1.707 -2.56,5.12 v 56.32 c 0,2.56 1.707,4.267 2.56,5.12 0.853,0.853 2.56,1.707 5.12,0 18.773,-9.387 38.4,-14.507 58.88,-16.213 l -6.827,-12.8 c -0.853,-2.56 -0.853,-5.12 0,-7.68 l 6.827,-13.653 c -20.48,-0.854 -40.96,-6.827 -59.733,-16.214 0.853,-0.853 0,-0.853 -0.854,-0.853 z"
   id="path31" />&#10;	<path
   d="m 347.16,306.2 c -3.413,0 -6.827,-0.853 -10.24,-2.56 -18.773,-9.387 -40.107,-14.507 -61.44,-14.507 h -4.267 c -2.56,0 -5.973,-1.707 -6.827,-4.267 -1.707,-2.56 -1.707,-5.973 0,-8.533 l 11.093,-22.187 -11.093,-21.333 c -1.707,-2.56 -0.853,-5.973 0,-8.533 1.707,-2.56 4.267,-4.267 7.68,-4.267 h 3.413 c 21.333,0 41.813,-5.12 61.44,-14.507 6.827,-3.413 15.36,-3.413 22.187,0.853 6.827,4.267 11.093,11.093 11.093,19.627 v 56.32 c 0,7.68 -4.267,15.36 -11.093,19.627 -4.266,2.56 -8.533,4.267 -11.946,4.267 z m -62.293,-34.133 c 20.48,1.707 40.96,6.827 59.733,16.213 2.56,0.853 5.12,0 5.12,0 0.853,-0.853 2.56,-1.707 2.56,-5.12 v -56.32 c 0,-2.56 -1.707,-4.267 -2.56,-5.12 -0.853,-0.853 -2.56,-1.707 -5.12,0 -18.773,9.387 -38.4,14.507 -58.88,16.213 l 6.827,12.8 c 0.853,2.56 0.853,5.12 0,7.68 z"
   id="path32" />&#10;	<path
   d="M 318.147,340.333 H 181.613 c -5.12,0 -8.533,-3.413 -8.533,-8.533 v -45.227 c 0,-3.413 2.56,-6.827 5.973,-8.533 11.947,-3.413 23.893,-5.973 35.84,-6.827 l -6.827,-12.8 c -0.853,-2.56 -0.853,-5.12 0,-7.68 l 6.827,-13.653 c -11.947,-0.853 -23.893,-2.56 -35.84,-6.827 -3.413,-0.853 -5.973,-4.266 -5.973,-7.68 v -61.44 c 0,-5.12 3.413,-8.533 8.533,-8.533 h 136.533 c 5.12,0 8.533,3.413 8.533,8.533 v 61.44 c 0,3.413 -2.56,6.827 -5.973,8.533 -11.947,3.413 -23.893,5.973 -35.84,6.827 l 6.827,12.8 c 0.853,2.56 0.853,5.12 0,7.68 l -6.827,13.653 c 11.947,0.853 23.893,2.56 35.84,6.827 3.413,0.853 5.973,4.267 5.973,8.533 V 331.8 c 0.001,5.12 -3.412,8.533 -8.532,8.533 z m -128,-17.066 H 309.614 V 293.4 c -11.093,-2.56 -23.04,-4.267 -34.133,-4.267 h -4.267 c -2.56,0 -5.973,-1.707 -6.827,-4.267 -0.853,-2.56 -1.707,-5.973 0,-8.533 l 11.093,-22.187 -11.093,-21.333 c -1.707,-2.56 -0.853,-5.973 0,-8.533 1.707,-2.56 4.267,-4.267 7.68,-4.267 h 3.413 c 11.947,0 23.04,-1.707 34.133,-4.267 v -46.08 H 190.147 v 46.08 c 11.093,2.56 23.04,4.267 34.133,4.267 h 4.267 c 2.56,0 5.973,1.707 6.827,4.267 1.707,2.56 1.707,5.973 0,8.533 L 225.133,255 l 11.093,21.333 c 1.707,2.56 0.853,5.973 0,8.533 -1.707,2.56 -4.267,4.267 -7.68,4.267 h -4.266 c -11.947,0 -23.04,1.707 -34.133,4.267 z m 128,-100.694 z"
   id="path33" />&#10;	&#10;	&#10;	&#10;</g>&#10;</svg>
