<?xml version="1.0" encoding="UTF-8" standalone="no"?>
<!-- Uploaded to: SVG Repo, www.svgrepo.com, Generator: SVG Repo Mixer Tools -->

<svg
   height="800"
   width="800"
   version="1.1"
   id="Layer_1"
   viewBox="0 0 512 512"
   xml:space="preserve"
   sodipodi:docname="gas-pipe-valve-svgrepo-com.svg"
   inkscape:export-filename="Valve_off.svg"
   inkscape:export-xdpi="96"
   inkscape:export-ydpi="96"
   xmlns:inkscape="http://www.inkscape.org/namespaces/inkscape"
   xmlns:sodipodi="http://sodipodi.sourceforge.net/DTD/sodipodi-0.dtd"
   xmlns="http://www.w3.org/2000/svg"
   xmlns:svg="http://www.w3.org/2000/svg"><defs
   id="defs36" /><sodipodi:namedview
   id="namedview36"
   pagecolor="#ffffff"
   bordercolor="#999999"
   borderopacity="1"
   inkscape:showpageshadow="2"
   inkscape:pageopacity="0"
   inkscape:pagecheckerboard="0"
   inkscape:deskcolor="#d1d1d1" />&#10;<g
   transform="translate(-148.76,1)"
   id="g36">&#10;	<g
   id="g3">&#10;		<path
   style="fill:#ffdd09"
   d="M 344.6,331.8 H 481.133 V 161.133 H 344.6 Z"
   id="path1" />&#10;		<path
   style="fill:#ffdd09"
   d="M 344.6,502.467 H 481.133 V 331.8 H 344.6 Z"
   id="path2" />&#10;		<path
   style="fill:#ffdd09"
   d="M 344.6,161.133 H 481.133 V 7.533 H 344.6 Z"
   id="path3" />&#10;	</g>&#10;	<path
   style="fill:#fd9808"
   d="m 464.067,502.467 h 17.067 V 7.533 h -17.067 z"
   id="path4" />&#10;	<path
   style="fill:#ffffff"
   d="m 344.6,502.467 h 17.067 V 7.533 H 344.6 Z"
   id="path5" />&#10;	<g
   id="g7">&#10;		<path
   style="fill:#fcc309"
   d="m 412.867,289.133 -25.6,-12.8 v 4.267 c 0,22.187 -5.12,44.373 -15.36,64.853 -5.12,9.387 2.56,20.48 12.8,20.48 h 56.32 c 10.24,0 17.067,-11.093 12.8,-20.48 -10.24,-20.48 -15.36,-42.667 -15.36,-64.853 v -4.267 z"
   id="path6" />&#10;		<path
   style="fill:#fcc309"
   d="m 412.867,220.867 25.6,12.8 V 229.4 c 0,-22.187 5.12,-44.373 15.36,-64.853 5.12,-9.387 -2.56,-20.48 -12.8,-20.48 h -56.32 c -10.24,0 -17.067,11.093 -12.8,20.48 10.24,20.48 15.36,42.667 15.36,64.853 v 4.267 z"
   id="path7" />&#10;	</g>&#10;	<path
   style="fill:#fd9808"
   d="M 412.867,220.867 447,237.933 v 34.133 l -34.133,17.067 -34.133,-17.067 v -34.133 z"
   id="path8" />&#10;	<path
   style="fill:#54c9fd"
   d="M 378.733,101.4 H 447 V 41.667 h -68.267 z"
   id="path9" />&#10;	<path
   style="fill:#33a9f8"
   d="M 421.4,101.4 H 447 V 41.667 h -25.6 z"
   id="path10" />&#10;	&#10;	&#10;	&#10;	&#10;	&#10;	&#10;	&#10;	&#10;	&#10;	&#10;	&#10;	&#10;	<path
   d="m 412.867,297.667 c -1.707,0 -2.56,0 -3.413,-0.853 l -34.133,-17.067 c -3.413,-1.707 -5.12,-4.267 -5.12,-7.68 v -34.133 c 0,-3.413 1.707,-5.973 4.267,-7.68 l 34.133,-17.067 c 2.56,-0.853 5.12,-0.853 7.68,0 l 34.133,17.067 c 2.56,1.707 5.12,4.267 5.12,7.68 v 34.133 c 0,3.413 -1.707,5.973 -5.12,7.68 l -34.133,17.067 c -0.854,0.853 -1.708,0.853 -3.414,0.853 z m -25.6,-30.72 25.6,12.8 25.6,-12.8 v -23.893 l -25.6,-12.8 -25.6,12.8 z"
   id="path26" />&#10;	<path
   d="m 447,109.933 h -68.267 c -5.12,0 -8.533,-3.413 -8.533,-8.533 V 41.667 c 0,-5.12 3.413,-8.533 8.533,-8.533 H 447 c 5.12,0 8.533,3.413 8.533,8.533 V 101.4 c 0,5.12 -3.413,8.533 -8.533,8.533 z M 387.267,92.867 h 51.2 V 50.2 h -51.2 z"
   id="path27" />&#10;	<path
   d="m 438.467,242.2 c -1.707,0 -2.56,0 -3.413,-0.853 l -22.187,-11.093 -21.333,11.093 c -2.56,1.707 -5.973,0.853 -8.533,0 -2.56,-1.707 -4.267,-4.267 -4.267,-7.68 V 229.4 c 0,-21.333 -5.12,-41.813 -14.507,-61.44 -3.413,-6.827 -3.413,-15.36 0.853,-22.187 4.267,-6.827 11.093,-11.093 19.627,-11.093 h 56.32 c 7.68,0 15.36,4.267 19.627,11.093 4.267,6.826 4.267,15.36 0.853,22.187 C 452.12,187.587 447,208.067 447,229.4 v 4.267 c 0,2.56 -1.707,5.973 -4.267,6.827 -0.853,1.706 -2.56,1.706 -4.266,1.706 z m -25.6,-29.867 c 1.707,0 2.56,0 3.413,0.853 l 13.653,6.827 c 1.707,-20.48 6.827,-40.96 16.213,-59.733 0.853,-2.56 0,-5.12 0,-5.12 0,0 -1.707,-2.56 -5.12,-2.56 h -56.32 c -2.56,0 -4.267,1.707 -5.12,2.56 -0.853,0.853 -1.707,2.56 0,5.12 9.387,18.773 14.507,38.4 16.213,58.88 l 12.8,-6.827 c 1.708,0 2.561,0 4.268,0 z"
   id="path28" />&#10;	<path
   d="m 441.027,374.467 h -56.32 c -7.68,0 -15.36,-4.267 -19.627,-11.093 -4.267,-6.827 -4.267,-15.36 -0.853,-22.187 9.387,-18.773 14.507,-40.107 14.507,-61.44 v -4.267 c 0,-2.56 1.707,-5.973 4.267,-6.827 2.56,-1.707 5.973,-1.707 8.533,0 l 22.187,11.093 21.333,-11.093 c 2.56,-1.707 5.973,-0.853 8.533,0 2.56,1.707 4.267,4.267 4.267,7.68 v 4.267 c 0,21.333 5.12,41.813 14.507,61.44 3.413,6.827 3.413,15.36 -0.853,22.187 -5.121,5.973 -12.801,10.24 -20.481,10.24 z m -46.08,-84.48 c -1.707,20.48 -6.827,40.96 -16.213,59.733 -0.853,2.56 0,5.12 0,5.12 0,0 1.707,2.56 5.12,2.56 h 56.32 c 2.56,0 4.267,-1.707 5.12,-2.56 0.853,-0.853 1.707,-2.56 0,-5.12 -9.387,-18.773 -14.507,-38.4 -16.213,-58.88 l -12.8,6.827 c -2.56,0.853 -5.12,0.853 -7.68,0 z"
   id="path29" />&#10;	&#10;	&#10;	&#10;	&#10;	<path
   d="M 481.133,178.2 H 452.12 c -2.56,0 -5.973,-1.707 -6.827,-4.267 -1.707,-2.56 -1.707,-5.12 -0.853,-8.533 l 0.853,-0.853 c 0.853,-1.707 0.853,-2.56 1.707,-4.267 0.853,-2.56 0,-5.12 0,-5.12 0,0 -2.56,-2.56 -5.973,-2.56 h -56.32 c -2.56,0 -4.267,1.707 -5.12,2.56 -0.853,0.853 -1.707,2.56 0,5.12 0.853,1.707 1.707,2.56 1.707,4.267 l 0.853,0.853 c 0.853,2.56 0.853,5.973 -0.853,8.533 -1.707,2.56 -4.267,4.267 -6.827,4.267 H 344.6 c -2.56,0 -4.267,-0.853 -5.973,-2.56 -1.706,-1.707 -2.56,-4.267 -2.56,-5.973 V 7.533 C 336.067,2.413 339.48,-1 344.6,-1 h 136.533 c 2.56,0 4.267,0.853 5.973,2.56 1.707,1.707 2.56,3.413 2.56,5.973 v 162.133 c 10e-4,4.267 -4.266,8.534 -8.533,8.534 z M 464.067,161.133 H 472.6 V 16.067 H 353.133 v 145.067 h 9.387 c -0.853,-5.12 0.853,-10.24 3.413,-14.507 4.267,-6.827 11.093,-11.093 19.627,-11.093 h 56.32 c 7.68,0 15.36,4.267 19.627,11.093 1.706,4.266 2.56,9.386 2.56,14.506 z"
   id="path34" />&#10;	<path
   d="m 481.133,348.867 h -29.867 c -3.413,0 -6.827,-1.707 -7.68,-5.12 -7.68,-17.067 -11.947,-34.987 -13.653,-53.76 l -12.8,6.827 c -2.56,0.853 -5.12,0.853 -7.68,0 L 395.8,289.987 c -0.853,18.773 -5.973,36.693 -13.653,53.76 -1.707,3.413 -4.267,5.12 -7.68,5.12 H 344.6 c -5.12,0 -8.533,-3.413 -8.533,-8.533 V 169.667 c 0,-5.12 3.413,-8.533 8.533,-8.533 h 29.867 c 3.413,0 5.973,1.707 7.68,5.12 7.68,17.067 11.947,34.987 13.653,53.76 l 12.8,-6.827 c 2.56,-0.853 5.12,-0.853 7.68,0 l 13.653,6.827 c 0.853,-18.773 5.973,-36.693 13.653,-53.76 1.707,-3.413 4.267,-5.12 7.68,-5.12 h 29.867 c 5.12,0 8.533,3.413 8.533,8.533 v 170.667 c 10e-4,4.266 -4.266,8.533 -8.533,8.533 z M 456.387,331.8 H 472.6 V 178.2 H 457.24 C 450.413,194.413 447,212.333 447,229.4 v 4.267 c 0,2.56 -1.707,5.973 -4.267,6.827 -2.56,0.853 -5.973,1.707 -8.533,0 l -21.333,-10.24 -21.333,11.093 c -2.56,1.707 -5.973,0.853 -8.533,0 -2.56,-1.707 -4.267,-4.267 -4.267,-7.68 V 229.4 c 0,-17.92 -3.413,-34.987 -10.24,-51.2 h -15.36 v 153.6 h 15.36 c 6.827,-16.213 10.24,-33.28 10.24,-51.2 v -4.267 c 0,-2.56 1.707,-5.973 4.267,-6.827 2.56,-1.707 5.973,-1.707 8.533,0 l 22.186,11.094 21.333,-11.093 c 2.56,-1.707 5.973,-0.853 8.533,0 2.56,1.707 4.267,4.267 4.267,7.68 v 3.413 c -0.853,17.92 2.56,34.987 8.534,51.2 z"
   id="path35" />&#10;	<path
   d="M 481.133,511 H 344.6 c -5.12,0 -8.533,-3.413 -8.533,-8.533 V 340.333 c 0,-2.56 0.853,-4.267 2.56,-5.973 1.707,-1.706 3.413,-2.56 5.973,-2.56 h 29.867 c 2.56,0 5.973,1.707 6.827,4.267 0.853,2.56 1.707,5.12 0.853,8.533 -0.853,2.56 -1.707,4.267 -2.56,5.973 -0.853,2.56 0,5.12 0,5.12 0,0 1.707,2.56 5.12,2.56 h 56.32 c 2.56,0 4.267,-1.707 5.12,-2.56 0.853,-0.853 1.707,-2.56 0,-5.12 -0.853,-1.707 -1.707,-3.413 -2.56,-5.973 -0.853,-2.56 -0.853,-5.973 0.853,-8.533 1.707,-2.56 4.267,-4.267 6.827,-4.267 h 29.867 c 5.12,0 8.533,3.413 8.533,8.533 v 162.133 c 0,2.56 -0.853,4.267 -2.56,5.973 -1.707,1.708 -3.414,2.561 -5.974,2.561 z m -128,-17.067 H 472.6 V 348.867 h -9.387 c 0.853,5.12 0,10.24 -3.413,15.36 -4.267,6.827 -11.093,11.093 -19.627,11.093 h -56.32 c -7.68,0 -15.36,-4.267 -19.627,-11.093 -2.56,-4.267 -4.267,-10.24 -3.413,-15.36 h -8.533 z"
   id="path36" />&#10;</g>&#10;</svg>
