<?xml version="1.0" encoding="UTF-8" standalone="no"?>
<!DOCTYPE svg PUBLIC "-//W3C//DTD SVG 1.1//EN"
 "http://www.w3.org/Graphics/SVG/1.1/DTD/svg11.dtd">
<!-- Generated by graphviz version 2.43.0 (0)
 -->
<!-- Title: classes_algorithm Pages: 1 -->
<svg width="1123pt" height="664pt"
 viewBox="0.00 0.00 1123.00 664.00" xmlns="http://www.w3.org/2000/svg" xmlns:xlink="http://www.w3.org/1999/xlink">
<g id="graph0" class="graph" transform="scale(1 1) rotate(0) translate(4 660)">
<title>classes_algorithm</title>
<polygon fill="white" stroke="transparent" points="-4,4 -4,-660 1119,-660 1119,4 -4,4"/>
<!-- minipti.algorithm.interferometry.Characterization -->
<g id="node1" class="node">
<title>minipti.algorithm.interferometry.Characterization</title>
<polygon fill="none" stroke="black" points="0,-354 0,-633 553,-633 553,-354 0,-354"/>
<text text-anchor="start" x="216.5" y="-617.8" font-family="Times,serif" font-size="14.00">Characterization</text>
<polyline fill="none" stroke="black" points="0,-610 553,-610 "/>
<text text-anchor="start" x="193.5" y="-594.8" font-family="Times,serif" font-size="14.00">MAX_ITERATIONS : int</text>
<text text-anchor="start" x="193.5" y="-579.8" font-family="Times,serif" font-size="14.00">STEP_SIZE : int</text>
<text text-anchor="start" x="193.5" y="-564.8" font-family="Times,serif" font-size="14.00">destination_folder</text>
<text text-anchor="start" x="193.5" y="-549.8" font-family="Times,serif" font-size="14.00">enough_values</text>
<text text-anchor="start" x="193.5" y="-534.8" font-family="Times,serif" font-size="14.00">event : Event</text>
<text text-anchor="start" x="193.5" y="-519.8" font-family="Times,serif" font-size="14.00">init_headers : bool</text>
<text text-anchor="start" x="193.5" y="-504.8" font-family="Times,serif" font-size="14.00">interferometer</text>
<text text-anchor="start" x="193.5" y="-489.8" font-family="Times,serif" font-size="14.00">occurred_phases</text>
<text text-anchor="start" x="193.5" y="-474.8" font-family="Times,serif" font-size="14.00">phases : list, int</text>
<text text-anchor="start" x="193.5" y="-459.8" font-family="Times,serif" font-size="14.00">time_stamp : int</text>
<text text-anchor="start" x="193.5" y="-444.8" font-family="Times,serif" font-size="14.00">tracking_phase : list</text>
<text text-anchor="start" x="193.5" y="-429.8" font-family="Times,serif" font-size="14.00">use_settings : bool</text>
<polyline fill="none" stroke="black" points="0,-422 553,-422 "/>
<text text-anchor="start" x="8" y="-406.8" font-family="Times,serif" font-size="14.00">add_phase(phase: float): None</text>
<text text-anchor="start" x="8" y="-391.8" font-family="Times,serif" font-size="14.00">characterise(live): None</text>
<text text-anchor="start" x="8" y="-376.8" font-family="Times,serif" font-size="14.00">clear(): None</text>
<text text-anchor="start" x="8" y="-361.8" font-family="Times,serif" font-size="14.00">process_characterisation(dc_signals: np.ndarray): Generator[int, None, int]</text>
</g>
<!-- minipti.algorithm.pti.Decimation -->
<g id="node2" class="node">
<title>minipti.algorithm.pti.Decimation</title>
<polygon fill="none" stroke="black" points="571,-475.5 571,-511.5 822,-511.5 822,-475.5 571,-475.5"/>
<text text-anchor="start" x="579" y="-489.8" font-family="Times,serif" font-size="14.00">minipti.algorithm.pti.Decimation</text>
</g>
<!-- minipti.algorithm.interferometry.Interferometer -->
<g id="node3" class="node">
<title>minipti.algorithm.interferometry.Interferometer</title>
<polygon fill="none" stroke="black" points="98.5,-0.5 98.5,-279.5 454.5,-279.5 454.5,-0.5 98.5,-0.5"/>
<text text-anchor="start" x="223" y="-264.3" font-family="Times,serif" font-size="14.00">Interferometer</text>
<polyline fill="none" stroke="black" points="98.5,-256.5 454.5,-256.5 "/>
<text text-anchor="start" x="162" y="-241.3" font-family="Times,serif" font-size="14.00">DC_HEADERS : list</text>
<text text-anchor="start" x="162" y="-226.3" font-family="Times,serif" font-size="14.00">amplitudes</text>
<text text-anchor="start" x="162" y="-211.3" font-family="Times,serif" font-size="14.00">amplitudes : list</text>
<text text-anchor="start" x="162" y="-196.3" font-family="Times,serif" font-size="14.00">decimation_filepath : str</text>
<text text-anchor="start" x="162" y="-181.3" font-family="Times,serif" font-size="14.00">offsets</text>
<text text-anchor="start" x="162" y="-166.3" font-family="Times,serif" font-size="14.00">offsets : list</text>
<text text-anchor="start" x="162" y="-151.3" font-family="Times,serif" font-size="14.00">output_phases</text>
<text text-anchor="start" x="162" y="-136.3" font-family="Times,serif" font-size="14.00">output_phases : list, ndarray</text>
<text text-anchor="start" x="162" y="-121.3" font-family="Times,serif" font-size="14.00">phase : Union[float, np.ndarray]</text>
<text text-anchor="start" x="162" y="-106.3" font-family="Times,serif" font-size="14.00">settings_path</text>
<polyline fill="none" stroke="black" points="98.5,-98.5 454.5,-98.5 "/>
<text text-anchor="start" x="106.5" y="-83.3" font-family="Times,serif" font-size="14.00">calculate_amplitudes(intensity: np.ndarray)</text>
<text text-anchor="start" x="106.5" y="-68.3" font-family="Times,serif" font-size="14.00">calculate_offsets(intensity: np.ndarray)</text>
<text text-anchor="start" x="106.5" y="-53.3" font-family="Times,serif" font-size="14.00">calculate_phase(intensities: np.ndarray)</text>
<text text-anchor="start" x="106.5" y="-38.3" font-family="Times,serif" font-size="14.00">error_handing_intensity(intensity)</text>
<text text-anchor="start" x="106.5" y="-23.3" font-family="Times,serif" font-size="14.00">load_settings(): None</text>
<text text-anchor="start" x="106.5" y="-8.3" font-family="Times,serif" font-size="14.00">read_decimation(): Union[pd.DataFrame, None]</text>
</g>
<!-- minipti.algorithm.interferometry.Interferometer&#45;&gt;minipti.algorithm.interferometry.Characterization -->
<g id="edge3" class="edge">
<title>minipti.algorithm.interferometry.Interferometer&#45;&gt;minipti.algorithm.interferometry.Characterization</title>
<path fill="none" stroke="black" d="M276.5,-279.67C276.5,-300.05 276.5,-321.14 276.5,-341.75"/>
<polygon fill="none" stroke="black" points="276.5,-341.82 280.5,-347.82 276.5,-353.82 272.5,-347.82 276.5,-341.82"/>
<text text-anchor="middle" x="329.5" y="-301.8" font-family="Times,serif" font-size="14.00" fill="green">interferometer</text>
</g>
<!-- minipti.algorithm.pti.Inversion -->
<g id="node4" class="node">
<title>minipti.algorithm.pti.Inversion</title>
<polygon fill="none" stroke="black" points="840,-331.5 840,-655.5 1115,-655.5 1115,-331.5 840,-331.5"/>
<text text-anchor="start" x="944" y="-640.3" font-family="Times,serif" font-size="14.00">Inversion</text>
<polyline fill="none" stroke="black" points="840,-632.5 1115,-632.5 "/>
<text text-anchor="start" x="848" y="-617.3" font-family="Times,serif" font-size="14.00">LOCK_IN_HEADERS : list</text>
<text text-anchor="start" x="848" y="-602.3" font-family="Times,serif" font-size="14.00">MICRO_RAD : float</text>
<text text-anchor="start" x="848" y="-587.3" font-family="Times,serif" font-size="14.00">SYMMETRIC_MINIMUM : float</text>
<text text-anchor="start" x="848" y="-572.3" font-family="Times,serif" font-size="14.00">dc_signals : ndarray</text>
<text text-anchor="start" x="848" y="-557.3" font-family="Times,serif" font-size="14.00">decimation_file_delimiter : str</text>
<text text-anchor="start" x="848" y="-542.3" font-family="Times,serif" font-size="14.00">destination_folder</text>
<text text-anchor="start" x="848" y="-527.3" font-family="Times,serif" font-size="14.00">init_header : bool</text>
<text text-anchor="start" x="848" y="-512.3" font-family="Times,serif" font-size="14.00">interferometer : NoneType</text>
<text text-anchor="start" x="848" y="-497.3" font-family="Times,serif" font-size="14.00">lock_in</text>
<text text-anchor="start" x="848" y="-482.3" font-family="Times,serif" font-size="14.00">pti_signal : Union[float, np.ndarray]</text>
<text text-anchor="start" x="848" y="-467.3" font-family="Times,serif" font-size="14.00">response_phases : NoneType</text>
<text text-anchor="start" x="848" y="-452.3" font-family="Times,serif" font-size="14.00">sensitivity : ndarray, list</text>
<text text-anchor="start" x="848" y="-437.3" font-family="Times,serif" font-size="14.00">settings_path</text>
<text text-anchor="start" x="848" y="-422.3" font-family="Times,serif" font-size="14.00">sign : int</text>
<text text-anchor="start" x="848" y="-407.3" font-family="Times,serif" font-size="14.00">symmetry : Union[float, np.ndarray]</text>
<polyline fill="none" stroke="black" points="840,-399.5 1115,-399.5 "/>
<text text-anchor="start" x="873.5" y="-384.3" font-family="Times,serif" font-size="14.00">calculate_pti_signal(): None</text>
<text text-anchor="start" x="873.5" y="-369.3" font-family="Times,serif" font-size="14.00">calculate_sensitivity(): None</text>
<text text-anchor="start" x="873.5" y="-354.3" font-family="Times,serif" font-size="14.00">invert(live): None</text>
<text text-anchor="start" x="873.5" y="-339.3" font-family="Times,serif" font-size="14.00">load_response_phase(): None</text>
</g>
<!-- minipti.algorithm.pti.LockIn -->
<g id="node5" class="node">
<title>minipti.algorithm.pti.LockIn</title>
<polygon fill="none" stroke="black" points="758.5,-98 758.5,-182 916.5,-182 916.5,-98 758.5,-98"/>
<text text-anchor="start" x="813.5" y="-166.8" font-family="Times,serif" font-size="14.00">LockIn</text>
<polyline fill="none" stroke="black" points="758.5,-159 916.5,-159 "/>
<text text-anchor="start" x="766.5" y="-143.8" font-family="Times,serif" font-size="14.00">amplitude : ndarray</text>
<text text-anchor="start" x="766.5" y="-128.8" font-family="Times,serif" font-size="14.00">phase : ndarray</text>
<polyline fill="none" stroke="black" points="758.5,-121 916.5,-121 "/>
<text text-anchor="start" x="835" y="-105.8" font-family="Times,serif" font-size="14.00"> </text>
</g>
<!-- minipti.algorithm.pti.LockIn&#45;&gt;minipti.algorithm.pti.Decimation -->
<g id="edge1" class="edge">
<title>minipti.algorithm.pti.LockIn&#45;&gt;minipti.algorithm.pti.Decimation</title>
<path fill="none" stroke="black" d="M821.05,-182.01C792.11,-254.17 732.78,-402.05 707.89,-464.1"/>
<polygon fill="black" stroke="black" points="707.86,-464.18 709.34,-471.24 703.39,-475.32 701.91,-468.26 707.86,-464.18"/>
<text text-anchor="middle" x="796" y="-301.8" font-family="Times,serif" font-size="14.00" fill="green">lock_in</text>
</g>
<!-- minipti.algorithm.pti.LockIn&#45;&gt;minipti.algorithm.pti.Inversion -->
<g id="edge2" class="edge">
<title>minipti.algorithm.pti.LockIn&#45;&gt;minipti.algorithm.pti.Inversion</title>
<path fill="none" stroke="black" d="M853.83,-182.01C867.58,-216.51 888.21,-268.33 908.71,-319.8"/>
<polygon fill="black" stroke="black" points="908.78,-319.97 914.72,-324.06 913.22,-331.12 907.29,-327.02 908.78,-319.97"/>
<text text-anchor="middle" x="928" y="-301.8" font-family="Times,serif" font-size="14.00" fill="green">lock_in</text>
</g>
</g>
</svg>
