<?xml version="1.0" encoding="UTF-8" standalone="no"?>
<!DOCTYPE svg PUBLIC "-//W3C//DTD SVG 1.1//EN"
 "http://www.w3.org/Graphics/SVG/1.1/DTD/svg11.dtd">
<!-- Generated by graphviz version 2.43.0 (0)
 -->
<!-- Title: classes_. Pages: 1 -->
<svg width="559pt" height="860pt"
 viewBox="0.00 0.00 558.50 860.00" xmlns="http://www.w3.org/2000/svg" xmlns:xlink="http://www.w3.org/1999/xlink">
<g id="graph0" class="graph" transform="scale(1 1) rotate(0) translate(4 856)">
<title>classes_.</title>
<polygon fill="white" stroke="transparent" points="-4,4 -4,-856 554.5,-856 554.5,4 -4,4"/>
<!-- minipti.hardware.laser.DAC -->
<g id="node1" class="node">
<title>minipti.hardware.laser.DAC</title>
<polygon fill="none" stroke="black" points="0,-0.5 0,-99.5 317,-99.5 317,-0.5 0,-0.5"/>
<text text-anchor="start" x="142.5" y="-84.3" font-family="Times,serif" font-size="14.00">DAC</text>
<polyline fill="none" stroke="black" points="0,-76.5 317,-76.5 "/>
<text text-anchor="start" x="8" y="-61.3" font-family="Times,serif" font-size="14.00">bit_value : int</text>
<text text-anchor="start" x="8" y="-46.3" font-family="Times,serif" font-size="14.00">continuous_wave : Annotated[list[bool], 3]</text>
<text text-anchor="start" x="8" y="-31.3" font-family="Times,serif" font-size="14.00">pulsed_mode : Annotated[list[bool], 3]</text>
<polyline fill="none" stroke="black" points="0,-23.5 317,-23.5 "/>
<text text-anchor="start" x="156" y="-8.3" font-family="Times,serif" font-size="14.00"> </text>
</g>
<!-- minipti.hardware.laser.PumpLaser -->
<g id="node5" class="node">
<title>minipti.hardware.laser.PumpLaser</title>
<polygon fill="none" stroke="black" points="34.5,-151.5 34.5,-295.5 282.5,-295.5 282.5,-151.5 34.5,-151.5"/>
<text text-anchor="start" x="117.5" y="-280.3" font-family="Times,serif" font-size="14.00">PumpLaser</text>
<polyline fill="none" stroke="black" points="34.5,-272.5 282.5,-272.5 "/>
<text text-anchor="start" x="65" y="-257.3" font-family="Times,serif" font-size="14.00">DAC_1</text>
<text text-anchor="start" x="65" y="-242.3" font-family="Times,serif" font-size="14.00">DAC_2</text>
<text text-anchor="start" x="65" y="-227.3" font-family="Times,serif" font-size="14.00">NUMBER_OF_STEPS : int</text>
<text text-anchor="start" x="65" y="-212.3" font-family="Times,serif" font-size="14.00">bit_value : int</text>
<text text-anchor="start" x="65" y="-197.3" font-family="Times,serif" font-size="14.00">max_current_mA : float</text>
<polyline fill="none" stroke="black" points="34.5,-189.5 282.5,-189.5 "/>
<text text-anchor="start" x="42.5" y="-174.3" font-family="Times,serif" font-size="14.00">bit_to_voltage(bits: int): float</text>
<text text-anchor="start" x="42.5" y="-159.3" font-family="Times,serif" font-size="14.00">voltage_to_bit(voltage: float): int</text>
</g>
<!-- minipti.hardware.laser.DAC&#45;&gt;minipti.hardware.laser.PumpLaser -->
<g id="edge1" class="edge">
<title>minipti.hardware.laser.DAC&#45;&gt;minipti.hardware.laser.PumpLaser</title>
<path fill="none" stroke="black" d="M130.52,-99.76C128.06,-105.75 125.96,-111.91 124.5,-118 122.84,-124.95 122.39,-132.11 122.84,-139.26"/>
<polygon fill="black" stroke="black" points="122.85,-139.36 127.58,-144.8 124.38,-151.26 119.65,-145.82 122.85,-139.36"/>
<text text-anchor="middle" x="148.5" y="-121.8" font-family="Times,serif" font-size="14.00" fill="green">DAC_1</text>
</g>
<!-- minipti.hardware.laser.DAC&#45;&gt;minipti.hardware.laser.PumpLaser -->
<g id="edge2" class="edge">
<title>minipti.hardware.laser.DAC&#45;&gt;minipti.hardware.laser.PumpLaser</title>
<path fill="none" stroke="black" d="M169.92,-99.85C170.98,-105.93 171.89,-112.09 172.5,-118 173.22,-124.94 173.41,-132.13 173.22,-139.34"/>
<polygon fill="black" stroke="black" points="173.21,-139.48 176.88,-145.69 172.56,-151.46 168.89,-145.25 173.21,-139.48"/>
<text text-anchor="middle" x="196.5" y="-121.8" font-family="Times,serif" font-size="14.00" fill="green">DAC_2</text>
</g>
<!-- minipti.hardware.laser.Data -->
<g id="node2" class="node">
<title>minipti.hardware.laser.Data</title>
<polygon fill="none" stroke="black" points="335,-0.5 335,-99.5 540,-99.5 540,-0.5 335,-0.5"/>
<text text-anchor="start" x="420.5" y="-84.3" font-family="Times,serif" font-size="14.00">Data</text>
<polyline fill="none" stroke="black" points="335,-76.5 540,-76.5 "/>
<text text-anchor="start" x="343" y="-61.3" font-family="Times,serif" font-size="14.00">probe_laser_current : float</text>
<text text-anchor="start" x="343" y="-46.3" font-family="Times,serif" font-size="14.00">pump_laser_current : float</text>
<text text-anchor="start" x="343" y="-31.3" font-family="Times,serif" font-size="14.00">pump_laser_voltage : float</text>
<polyline fill="none" stroke="black" points="335,-23.5 540,-23.5 "/>
<text text-anchor="start" x="435" y="-8.3" font-family="Times,serif" font-size="14.00"> </text>
</g>
<!-- minipti.hardware.laser.Driver -->
<g id="node3" class="node">
<title>minipti.hardware.laser.Driver</title>
<polygon fill="none" stroke="black" points="110,-347.5 110,-851.5 475,-851.5 475,-347.5 110,-347.5"/>
<text text-anchor="start" x="269.5" y="-836.3" font-family="Times,serif" font-size="14.00">Driver</text>
<polyline fill="none" stroke="black" points="110,-828.5 475,-828.5 "/>
<text text-anchor="start" x="118" y="-813.3" font-family="Times,serif" font-size="14.00">CHANNELS : int</text>
<text text-anchor="start" x="118" y="-798.3" font-family="Times,serif" font-size="14.00">CURRENT_BITS : int</text>
<text text-anchor="start" x="118" y="-783.3" font-family="Times,serif" font-size="14.00">DATA_START : str</text>
<text text-anchor="start" x="118" y="-768.3" font-family="Times,serif" font-size="14.00">DELIMITER : str</text>
<text text-anchor="start" x="118" y="-753.3" font-family="Times,serif" font-size="14.00">HARDWARE_ID : bytes</text>
<text text-anchor="start" x="118" y="-738.3" font-family="Times,serif" font-size="14.00">NAME : str</text>
<text text-anchor="start" x="118" y="-723.3" font-family="Times,serif" font-size="14.00">config_path : str</text>
<text text-anchor="start" x="118" y="-708.3" font-family="Times,serif" font-size="14.00">device_id</text>
<text text-anchor="start" x="118" y="-693.3" font-family="Times,serif" font-size="14.00">device_name</text>
<text text-anchor="start" x="118" y="-678.3" font-family="Times,serif" font-size="14.00">end_data_frame</text>
<text text-anchor="start" x="118" y="-663.3" font-family="Times,serif" font-size="14.00">probe_laser : Optional[Union[ProbeLaser, None]]</text>
<text text-anchor="start" x="118" y="-648.3" font-family="Times,serif" font-size="14.00">probe_laser_enabled</text>
<text text-anchor="start" x="118" y="-633.3" font-family="Times,serif" font-size="14.00">probe_laser_initialized : bool</text>
<text text-anchor="start" x="118" y="-618.3" font-family="Times,serif" font-size="14.00">pump_laser : Optional[Union[PumpLaser, None]]</text>
<text text-anchor="start" x="118" y="-603.3" font-family="Times,serif" font-size="14.00">pump_laser_enabled</text>
<text text-anchor="start" x="118" y="-588.3" font-family="Times,serif" font-size="14.00">pump_laser_initialized : bool</text>
<polyline fill="none" stroke="black" points="110,-580.5 475,-580.5 "/>
<text text-anchor="start" x="178" y="-565.3" font-family="Times,serif" font-size="14.00">apply_configuration(): None</text>
<text text-anchor="start" x="178" y="-550.3" font-family="Times,serif" font-size="14.00">enable_channels(): None</text>
<text text-anchor="start" x="178" y="-535.3" font-family="Times,serif" font-size="14.00">encode_data(): None</text>
<text text-anchor="start" x="178" y="-520.3" font-family="Times,serif" font-size="14.00">init_probe_laser(): None</text>
<text text-anchor="start" x="178" y="-505.3" font-family="Times,serif" font-size="14.00">init_pump_laser(): None</text>
<text text-anchor="start" x="178" y="-490.3" font-family="Times,serif" font-size="14.00">load_configuration(): None</text>
<text text-anchor="start" x="178" y="-475.3" font-family="Times,serif" font-size="14.00">open(): None</text>
<text text-anchor="start" x="178" y="-460.3" font-family="Times,serif" font-size="14.00">save_configuration(): None</text>
<text text-anchor="start" x="178" y="-445.3" font-family="Times,serif" font-size="14.00">set_dac_1(): None</text>
<text text-anchor="start" x="178" y="-430.3" font-family="Times,serif" font-size="14.00">set_dac_2(): None</text>
<text text-anchor="start" x="178" y="-415.3" font-family="Times,serif" font-size="14.00">set_dac_matrix(): None</text>
<text text-anchor="start" x="178" y="-400.3" font-family="Times,serif" font-size="14.00">set_driver_voltage(): None</text>
<text text-anchor="start" x="178" y="-385.3" font-family="Times,serif" font-size="14.00">set_photo_gain(): None</text>
<text text-anchor="start" x="178" y="-370.3" font-family="Times,serif" font-size="14.00">set_probe_laser_current(): None</text>
<text text-anchor="start" x="178" y="-355.3" font-family="Times,serif" font-size="14.00">set_probe_laser_mode(): None</text>
</g>
<!-- minipti.hardware.laser.ProbeLaser -->
<g id="node4" class="node">
<title>minipti.hardware.laser.ProbeLaser</title>
<polygon fill="none" stroke="black" points="300.5,-151.5 300.5,-295.5 550.5,-295.5 550.5,-151.5 300.5,-151.5"/>
<text text-anchor="start" x="384.5" y="-280.3" font-family="Times,serif" font-size="14.00">ProbeLaser</text>
<polyline fill="none" stroke="black" points="300.5,-272.5 550.5,-272.5 "/>
<text text-anchor="start" x="342.5" y="-257.3" font-family="Times,serif" font-size="14.00">constant_current : bool</text>
<text text-anchor="start" x="342.5" y="-242.3" font-family="Times,serif" font-size="14.00">constant_light : bool</text>
<text text-anchor="start" x="342.5" y="-227.3" font-family="Times,serif" font-size="14.00">current_bits : int</text>
<text text-anchor="start" x="342.5" y="-212.3" font-family="Times,serif" font-size="14.00">max_current_mA : float</text>
<text text-anchor="start" x="342.5" y="-197.3" font-family="Times,serif" font-size="14.00">photo_diode_gain : int</text>
<polyline fill="none" stroke="black" points="300.5,-189.5 550.5,-189.5 "/>
<text text-anchor="start" x="308.5" y="-174.3" font-family="Times,serif" font-size="14.00">bit_to_current(bits: int): float</text>
<text text-anchor="start" x="308.5" y="-159.3" font-family="Times,serif" font-size="14.00">current_to_bit(current: float): int</text>
</g>
<!-- minipti.hardware.laser.ProbeLaser&#45;&gt;minipti.hardware.laser.Driver -->
<g id="edge3" class="edge">
<title>minipti.hardware.laser.ProbeLaser&#45;&gt;minipti.hardware.laser.Driver</title>
<path fill="none" stroke="black" d="M400.17,-295.73C395.77,-308.1 390.97,-321.59 385.93,-335.78"/>
<polygon fill="black" stroke="black" points="385.85,-336 387.61,-342.99 381.83,-347.31 380.07,-340.31 385.85,-336"/>
<text text-anchor="middle" x="434.5" y="-317.8" font-family="Times,serif" font-size="14.00" fill="green">probe_laser</text>
</g>
<!-- minipti.hardware.laser.PumpLaser&#45;&gt;minipti.hardware.laser.Driver -->
<g id="edge4" class="edge">
<title>minipti.hardware.laser.PumpLaser&#45;&gt;minipti.hardware.laser.Driver</title>
<path fill="none" stroke="black" d="M184.02,-295.73C188.45,-308.1 193.29,-321.59 198.37,-335.78"/>
<polygon fill="black" stroke="black" points="198.45,-336.01 204.24,-340.31 202.5,-347.31 196.71,-343.01 198.45,-336.01"/>
<text text-anchor="middle" x="235" y="-317.8" font-family="Times,serif" font-size="14.00" fill="green">pump_laser</text>
</g>
</g>
</svg>
