<?xml version="1.0" encoding="UTF-8" standalone="no"?>
<!DOCTYPE svg PUBLIC "-//W3C//DTD SVG 1.1//EN"
 "http://www.w3.org/Graphics/SVG/1.1/DTD/svg11.dtd">
<!-- Generated by graphviz version 2.43.0 (0)
 -->
<!-- Title: classes_. Pages: 1 -->
<svg width="939pt" height="905pt"
 viewBox="0.00 0.00 938.50 905.00" xmlns="http://www.w3.org/2000/svg" xmlns:xlink="http://www.w3.org/1999/xlink">
<g id="graph0" class="graph" transform="scale(1 1) rotate(0) translate(4 901)">
<title>classes_.</title>
<polygon fill="white" stroke="transparent" points="-4,4 -4,-901 934.5,-901 934.5,4 -4,4"/>
<!-- minipti.hardware.motherboard.BMS -->
<g id="node1" class="node">
<title>minipti.hardware.motherboard.BMS</title>
<polygon fill="none" stroke="black" points="0,-60.5 0,-129.5 56,-129.5 56,-60.5 0,-60.5"/>
<text text-anchor="start" x="10.5" y="-114.3" font-family="Times,serif" font-size="14.00">BMS</text>
<polyline fill="none" stroke="black" points="0,-106.5 56,-106.5 "/>
<text text-anchor="start" x="8" y="-91.3" font-family="Times,serif" font-size="14.00">name</text>
<polyline fill="none" stroke="black" points="0,-83.5 56,-83.5 "/>
<text text-anchor="start" x="25.5" y="-68.3" font-family="Times,serif" font-size="14.00"> </text>
</g>
<!-- minipti.hardware.motherboard.BMSData -->
<g id="node2" class="node">
<title>minipti.hardware.motherboard.BMSData</title>
<polygon fill="none" stroke="black" points="74.5,-0.5 74.5,-189.5 285.5,-189.5 285.5,-0.5 74.5,-0.5"/>
<text text-anchor="start" x="145.5" y="-174.3" font-family="Times,serif" font-size="14.00">BMSData</text>
<polyline fill="none" stroke="black" points="74.5,-166.5 285.5,-166.5 "/>
<text text-anchor="start" x="82.5" y="-151.3" font-family="Times,serif" font-size="14.00">battery_current : int</text>
<text text-anchor="start" x="82.5" y="-136.3" font-family="Times,serif" font-size="14.00">battery_percentage : int</text>
<text text-anchor="start" x="82.5" y="-121.3" font-family="Times,serif" font-size="14.00">battery_temperature : float</text>
<text text-anchor="start" x="82.5" y="-106.3" font-family="Times,serif" font-size="14.00">battery_voltage : int</text>
<text text-anchor="start" x="82.5" y="-91.3" font-family="Times,serif" font-size="14.00">charging : bool</text>
<text text-anchor="start" x="82.5" y="-76.3" font-family="Times,serif" font-size="14.00">external_dc_power : bool</text>
<text text-anchor="start" x="82.5" y="-61.3" font-family="Times,serif" font-size="14.00">full_charged_capacity : int</text>
<text text-anchor="start" x="82.5" y="-46.3" font-family="Times,serif" font-size="14.00">minutes_left : int</text>
<text text-anchor="start" x="82.5" y="-31.3" font-family="Times,serif" font-size="14.00">remaining_capacity : int</text>
<polyline fill="none" stroke="black" points="74.5,-23.5 285.5,-23.5 "/>
<text text-anchor="start" x="177.5" y="-8.3" font-family="Times,serif" font-size="14.00"> </text>
</g>
<!-- minipti.hardware.motherboard.DAQData -->
<g id="node3" class="node">
<title>minipti.hardware.motherboard.DAQData</title>
<polygon fill="none" stroke="black" points="304,-45.5 304,-144.5 690,-144.5 690,-45.5 304,-45.5"/>
<text text-anchor="start" x="463.5" y="-129.3" font-family="Times,serif" font-size="14.00">DAQData</text>
<polyline fill="none" stroke="black" points="304,-121.5 690,-121.5 "/>
<text text-anchor="start" x="312" y="-106.3" font-family="Times,serif" font-size="14.00">ac_coupled : Union[queue.Queue, deque, Sequence]</text>
<text text-anchor="start" x="312" y="-91.3" font-family="Times,serif" font-size="14.00">dc_coupled : Union[queue.Queue, deque, Sequence]</text>
<text text-anchor="start" x="312" y="-76.3" font-family="Times,serif" font-size="14.00">ref_signal : Union[queue.Queue, deque, Sequence]</text>
<polyline fill="none" stroke="black" points="304,-68.5 690,-68.5 "/>
<text text-anchor="start" x="494.5" y="-53.3" font-family="Times,serif" font-size="14.00"> </text>
</g>
<!-- minipti.hardware.motherboard.Driver -->
<g id="node4" class="node">
<title>minipti.hardware.motherboard.Driver</title>
<polygon fill="none" stroke="black" points="366.5,-377.5 366.5,-896.5 751.5,-896.5 751.5,-377.5 366.5,-377.5"/>
<text text-anchor="start" x="536" y="-881.3" font-family="Times,serif" font-size="14.00">Driver</text>
<polyline fill="none" stroke="black" points="366.5,-873.5 751.5,-873.5 "/>
<text text-anchor="start" x="374.5" y="-858.3" font-family="Times,serif" font-size="14.00">ID : bytes</text>
<text text-anchor="start" x="374.5" y="-843.3" font-family="Times,serif" font-size="14.00">NAME : str</text>
<text text-anchor="start" x="374.5" y="-828.3" font-family="Times,serif" font-size="14.00">NUMBER_OF_SAMPLES : int</text>
<text text-anchor="start" x="374.5" y="-813.3" font-family="Times,serif" font-size="14.00">REF_PERIOD : int</text>
<text text-anchor="start" x="374.5" y="-798.3" font-family="Times,serif" font-size="14.00">ac_coupled</text>
<text text-anchor="start" x="374.5" y="-783.3" font-family="Times,serif" font-size="14.00">automatic_switch : Event</text>
<text text-anchor="start" x="374.5" y="-768.3" font-family="Times,serif" font-size="14.00">bms</text>
<text text-anchor="start" x="374.5" y="-753.3" font-family="Times,serif" font-size="14.00">bms_package_empty</text>
<text text-anchor="start" x="374.5" y="-738.3" font-family="Times,serif" font-size="14.00">buffer_size</text>
<text text-anchor="start" x="374.5" y="-723.3" font-family="Times,serif" font-size="14.00">bypass : bool</text>
<text text-anchor="start" x="374.5" y="-708.3" font-family="Times,serif" font-size="14.00">config : Optional[Union[MotherBoardConfig, None]]</text>
<text text-anchor="start" x="374.5" y="-693.3" font-family="Times,serif" font-size="14.00">config_parser : CommentedConfigParser</text>
<text text-anchor="start" x="374.5" y="-678.3" font-family="Times,serif" font-size="14.00">config_path</text>
<text text-anchor="start" x="374.5" y="-663.3" font-family="Times,serif" font-size="14.00">connected : Event</text>
<text text-anchor="start" x="374.5" y="-648.3" font-family="Times,serif" font-size="14.00">dc_coupled</text>
<text text-anchor="start" x="374.5" y="-633.3" font-family="Times,serif" font-size="14.00">device_id</text>
<text text-anchor="start" x="374.5" y="-618.3" font-family="Times,serif" font-size="14.00">device_name</text>
<text text-anchor="start" x="374.5" y="-603.3" font-family="Times,serif" font-size="14.00">encoded_buffer_ac_size</text>
<text text-anchor="start" x="374.5" y="-588.3" font-family="Times,serif" font-size="14.00">encoded_buffer_dc_size</text>
<text text-anchor="start" x="374.5" y="-573.3" font-family="Times,serif" font-size="14.00">encoded_buffer_ref_size</text>
<text text-anchor="start" x="374.5" y="-558.3" font-family="Times,serif" font-size="14.00">ref_signal</text>
<text text-anchor="start" x="374.5" y="-543.3" font-family="Times,serif" font-size="14.00">saved_sample_numbers</text>
<text text-anchor="start" x="374.5" y="-528.3" font-family="Times,serif" font-size="14.00">shutdown : Event</text>
<text text-anchor="start" x="374.5" y="-513.3" font-family="Times,serif" font-size="14.00">synchronize : bool</text>
<polyline fill="none" stroke="black" points="366.5,-505.5 751.5,-505.5 "/>
<text text-anchor="start" x="443.5" y="-490.3" font-family="Times,serif" font-size="14.00">automatic_valve_change(): None</text>
<text text-anchor="start" x="443.5" y="-475.3" font-family="Times,serif" font-size="14.00">build_sample_package(): None</text>
<text text-anchor="start" x="443.5" y="-460.3" font-family="Times,serif" font-size="14.00">clear_buffer(): None</text>
<text text-anchor="start" x="443.5" y="-445.3" font-family="Times,serif" font-size="14.00">encode_data(): None</text>
<text text-anchor="start" x="443.5" y="-430.3" font-family="Times,serif" font-size="14.00">load_config(): None</text>
<text text-anchor="start" x="443.5" y="-415.3" font-family="Times,serif" font-size="14.00">reset(): None</text>
<text text-anchor="start" x="443.5" y="-400.3" font-family="Times,serif" font-size="14.00">save_config(): None</text>
<text text-anchor="start" x="443.5" y="-385.3" font-family="Times,serif" font-size="14.00">set_valve(): None</text>
</g>
<!-- minipti.hardware.motherboard.DAQData&#45;&gt;minipti.hardware.motherboard.Driver -->
<g id="edge1" class="edge">
<title>minipti.hardware.motherboard.DAQData&#45;&gt;minipti.hardware.motherboard.Driver</title>
<path fill="none" stroke="black" d="M432.11,-144.76C403.96,-170 374.03,-203.41 359,-241 344.98,-276.08 348.32,-289.76 359,-326 362.96,-339.44 367.7,-352.85 373.07,-366.13"/>
<polygon fill="black" stroke="black" points="373.09,-366.18 379.09,-370.17 377.71,-377.25 371.71,-373.26 373.09,-366.18"/>
<text text-anchor="middle" x="417" y="-279.8" font-family="Times,serif" font-size="14.00" fill="green">_encoded_buffer</text>
</g>
<!-- minipti.hardware.motherboard.DAQData&#45;&gt;minipti.hardware.motherboard.Driver -->
<g id="edge2" class="edge">
<title>minipti.hardware.motherboard.DAQData&#45;&gt;minipti.hardware.motherboard.Driver</title>
<path fill="none" stroke="black" d="M497.07,-144.59C497.57,-191.23 499.47,-263.6 506,-326 507.34,-338.78 508.88,-351.84 510.57,-365.01"/>
<polygon fill="black" stroke="black" points="510.6,-365.23 515.35,-370.66 512.17,-377.13 507.42,-371.7 510.6,-365.23"/>
<text text-anchor="middle" x="564" y="-279.8" font-family="Times,serif" font-size="14.00" fill="green">_encoded_buffer</text>
</g>
<!-- minipti.hardware.motherboard.PackageData -->
<g id="node6" class="node">
<title>minipti.hardware.motherboard.PackageData</title>
<polygon fill="none" stroke="black" points="631,-241.5 631,-325.5 741,-325.5 741,-241.5 631,-241.5"/>
<text text-anchor="start" x="639.5" y="-310.3" font-family="Times,serif" font-size="14.00">PackageData</text>
<polyline fill="none" stroke="black" points="631,-302.5 741,-302.5 "/>
<text text-anchor="start" x="639" y="-287.3" font-family="Times,serif" font-size="14.00">BMS : Queue</text>
<text text-anchor="start" x="639" y="-272.3" font-family="Times,serif" font-size="14.00">DAQ</text>
<polyline fill="none" stroke="black" points="631,-264.5 741,-264.5 "/>
<text text-anchor="start" x="683.5" y="-249.3" font-family="Times,serif" font-size="14.00"> </text>
</g>
<!-- minipti.hardware.motherboard.DAQData&#45;&gt;minipti.hardware.motherboard.PackageData -->
<g id="edge3" class="edge">
<title>minipti.hardware.motherboard.DAQData&#45;&gt;minipti.hardware.motherboard.PackageData</title>
<path fill="none" stroke="black" d="M546.16,-144.51C573.7,-171.69 607.97,-205.5 635.69,-232.85"/>
<polygon fill="black" stroke="black" points="635.9,-233.06 642.98,-234.43 644.44,-241.49 637.36,-240.12 635.9,-233.06"/>
<text text-anchor="middle" x="640.5" y="-211.8" font-family="Times,serif" font-size="14.00" fill="green">DAQ</text>
</g>
<!-- minipti.hardware.motherboard.MotherBoardConfig -->
<g id="node5" class="node">
<title>minipti.hardware.motherboard.MotherBoardConfig</title>
<polygon fill="none" stroke="black" points="759,-249 759,-318 917,-318 917,-249 759,-249"/>
<text text-anchor="start" x="767" y="-302.8" font-family="Times,serif" font-size="14.00">MotherBoardConfig</text>
<polyline fill="none" stroke="black" points="759,-295 917,-295 "/>
<text text-anchor="start" x="819" y="-279.8" font-family="Times,serif" font-size="14.00">valve</text>
<polyline fill="none" stroke="black" points="759,-272 917,-272 "/>
<text text-anchor="start" x="835.5" y="-256.8" font-family="Times,serif" font-size="14.00"> </text>
</g>
<!-- minipti.hardware.motherboard.MotherBoardConfig&#45;&gt;minipti.hardware.motherboard.Driver -->
<g id="edge4" class="edge">
<title>minipti.hardware.motherboard.MotherBoardConfig&#45;&gt;minipti.hardware.motherboard.Driver</title>
<path fill="none" stroke="black" d="M811.25,-318.2C797.52,-335.5 779.45,-358.27 759.26,-383.7"/>
<polygon fill="black" stroke="black" points="759.19,-383.79 758.59,-390.97 751.73,-393.19 752.33,-386 759.19,-383.79"/>
<text text-anchor="middle" x="805.5" y="-347.8" font-family="Times,serif" font-size="14.00" fill="green">config</text>
</g>
<!-- minipti.hardware.motherboard.PackageData&#45;&gt;minipti.hardware.motherboard.Driver -->
<g id="edge5" class="edge">
<title>minipti.hardware.motherboard.PackageData&#45;&gt;minipti.hardware.motherboard.Driver</title>
<path fill="none" stroke="black" d="M630.87,-319.18C626.25,-321.62 621.59,-323.93 617,-326 592.78,-336.92 575.74,-322.6 560,-344 554.79,-351.08 550.29,-358.54 546.41,-366.29"/>
<polygon fill="black" stroke="black" points="546.31,-366.52 547.47,-373.63 541.34,-377.44 540.18,-370.32 546.31,-366.52"/>
<text text-anchor="middle" x="612" y="-347.8" font-family="Times,serif" font-size="14.00" fill="green">_package_data</text>
</g>
<!-- minipti.hardware.motherboard.PackageData&#45;&gt;minipti.hardware.motherboard.Driver -->
<g id="edge6" class="edge">
<title>minipti.hardware.motherboard.PackageData&#45;&gt;minipti.hardware.motherboard.Driver</title>
<path fill="none" stroke="black" d="M674.45,-325.66C671.23,-336.55 667.61,-348.26 664,-359 663.23,-361.28 662.45,-363.58 661.67,-365.88"/>
<polygon fill="black" stroke="black" points="661.6,-366.1 663.44,-373.07 657.71,-377.45 655.87,-370.48 661.6,-366.1"/>
<text text-anchor="middle" x="720" y="-347.8" font-family="Times,serif" font-size="14.00" fill="green">_package_data</text>
</g>
<!-- minipti.hardware.motherboard.Valve -->
<g id="node7" class="node">
<title>minipti.hardware.motherboard.Valve</title>
<polygon fill="none" stroke="black" points="745.5,-45.5 745.5,-144.5 930.5,-144.5 930.5,-45.5 745.5,-45.5"/>
<text text-anchor="start" x="818.5" y="-129.3" font-family="Times,serif" font-size="14.00">Valve</text>
<polyline fill="none" stroke="black" points="745.5,-121.5 930.5,-121.5 "/>
<text text-anchor="start" x="753.5" y="-106.3" font-family="Times,serif" font-size="14.00">automatic_switch : bool</text>
<text text-anchor="start" x="753.5" y="-91.3" font-family="Times,serif" font-size="14.00">duty_cycle : int</text>
<text text-anchor="start" x="753.5" y="-76.3" font-family="Times,serif" font-size="14.00">period : int</text>
<polyline fill="none" stroke="black" points="745.5,-68.5 930.5,-68.5 "/>
<text text-anchor="start" x="835.5" y="-53.3" font-family="Times,serif" font-size="14.00"> </text>
</g>
<!-- minipti.hardware.motherboard.Valve&#45;&gt;minipti.hardware.motherboard.MotherBoardConfig -->
<g id="edge7" class="edge">
<title>minipti.hardware.motherboard.Valve&#45;&gt;minipti.hardware.motherboard.MotherBoardConfig</title>
<path fill="none" stroke="black" d="M838,-144.51C838,-172.97 838,-208.7 838,-236.68"/>
<polygon fill="black" stroke="black" points="838,-236.93 842,-242.93 838,-248.93 834,-242.93 838,-236.93"/>
<text text-anchor="middle" x="857" y="-211.8" font-family="Times,serif" font-size="14.00" fill="green">valve</text>
</g>
</g>
</svg>
