<?xml version="1.0" encoding="UTF-8" standalone="no"?>
<!DOCTYPE svg PUBLIC "-//W3C//DTD SVG 1.1//EN"
 "http://www.w3.org/Graphics/SVG/1.1/DTD/svg11.dtd">
<!-- Generated by graphviz version 2.43.0 (0)
 -->
<!-- Title: classes_. Pages: 1 -->
<svg width="872pt" height="384pt"
 viewBox="0.00 0.00 872.00 384.00" xmlns="http://www.w3.org/2000/svg" xmlns:xlink="http://www.w3.org/1999/xlink">
<g id="graph0" class="graph" transform="scale(1 1) rotate(0) translate(4 380)">
<title>classes_.</title>
<polygon fill="white" stroke="transparent" points="-4,4 -4,-380 868,-380 868,4 -4,4"/>
<!-- minipti.hardware.serial_device.Command -->
<g id="node1" class="node">
<title>minipti.hardware.serial_device.Command</title>
<polygon fill="none" stroke="black" points="0,-153.5 0,-222.5 180,-222.5 180,-153.5 0,-153.5"/>
<text text-anchor="start" x="53.5" y="-207.3" font-family="Times,serif" font-size="14.00">Command</text>
<polyline fill="none" stroke="black" points="0,-199.5 180,-199.5 "/>
<text text-anchor="start" x="8" y="-184.3" font-family="Times,serif" font-size="14.00">HARDWARE_ID : bytes</text>
<polyline fill="none" stroke="black" points="0,-176.5 180,-176.5 "/>
<text text-anchor="start" x="87.5" y="-161.3" font-family="Times,serif" font-size="14.00"> </text>
</g>
<!-- minipti.hardware.serial_device.Data -->
<g id="node2" class="node">
<title>minipti.hardware.serial_device.Data</title>
<polygon fill="none" stroke="black" points="198,-152.6 198,-223.4 252,-223.4 252,-152.6 198,-152.6"/>
<text text-anchor="start" x="208" y="-208.2" font-family="Times,serif" font-size="14.00">Data</text>
<polyline fill="none" stroke="black" points="198,-200.4 252,-200.4 "/>
<polyline fill="none" stroke="black" points="198,-175.6 252,-175.6 "/>
<text text-anchor="start" x="222.5" y="-160.4" font-family="Times,serif" font-size="14.00"> </text>
</g>
<!-- minipti.hardware.serial_device.Driver -->
<g id="node3" class="node">
<title>minipti.hardware.serial_device.Driver</title>
<polygon fill="none" stroke="black" points="270,-0.5 270,-375.5 644,-375.5 644,-0.5 270,-0.5"/>
<text text-anchor="start" x="434" y="-360.3" font-family="Times,serif" font-size="14.00">Driver</text>
<polyline fill="none" stroke="black" points="270,-352.5 644,-352.5 "/>
<text text-anchor="start" x="344.5" y="-337.3" font-family="Times,serif" font-size="14.00">MAX_RESPONSE_TIME : float</text>
<text text-anchor="start" x="344.5" y="-322.3" font-family="Times,serif" font-size="14.00">NUMBER_OF_HEX_BYTES : int</text>
<text text-anchor="start" x="344.5" y="-307.3" font-family="Times,serif" font-size="14.00">TERMINATION_SYMBOL : str</text>
<text text-anchor="start" x="344.5" y="-292.3" font-family="Times,serif" font-size="14.00">connected : Event</text>
<text text-anchor="start" x="344.5" y="-277.3" font-family="Times,serif" font-size="14.00">data : Queue</text>
<text text-anchor="start" x="344.5" y="-262.3" font-family="Times,serif" font-size="14.00">device : NoneType</text>
<text text-anchor="start" x="344.5" y="-247.3" font-family="Times,serif" font-size="14.00">device_id</text>
<text text-anchor="start" x="344.5" y="-232.3" font-family="Times,serif" font-size="14.00">device_name</text>
<text text-anchor="start" x="344.5" y="-217.3" font-family="Times,serif" font-size="14.00">file_descriptor : int</text>
<text text-anchor="start" x="344.5" y="-202.3" font-family="Times,serif" font-size="14.00">last_written_message : str</text>
<text text-anchor="start" x="344.5" y="-187.3" font-family="Times,serif" font-size="14.00">port_name : str</text>
<text text-anchor="start" x="344.5" y="-172.3" font-family="Times,serif" font-size="14.00">ready_write : Event</text>
<text text-anchor="start" x="344.5" y="-157.3" font-family="Times,serif" font-size="14.00">received_data : Queue</text>
<text text-anchor="start" x="344.5" y="-142.3" font-family="Times,serif" font-size="14.00">running : Event</text>
<polyline fill="none" stroke="black" points="270,-134.5 644,-134.5 "/>
<text text-anchor="start" x="278" y="-120.3" font-family="Times,serif" font-size="14.00">close(): None</text>
<text text-anchor="start" x="278" y="-106.3" font-family="Times,serif" font-size="14.00">command_error_handing(received: str): None</text>
<text text-anchor="start" x="278" y="-92.3" font-family="Times,serif" font-style="italic" font-size="14.00">encode_data</text>
<text text-anchor="start" x="367" y="-92.3" font-family="Times,serif" font-size="14.00">(): None</text>
<text text-anchor="start" x="278" y="-78.3" font-family="Times,serif" font-size="14.00">find_port(): None</text>
<text text-anchor="start" x="278" y="-64.3" font-family="Times,serif" font-size="14.00">get_hardware_id(): Union[bytes, None]</text>
<text text-anchor="start" x="278" y="-50.3" font-family="Times,serif" font-size="14.00">is_open(): bool</text>
<text text-anchor="start" x="278" y="-36.3" font-family="Times,serif" font-size="14.00">open(): None</text>
<text text-anchor="start" x="278" y="-22.3" font-family="Times,serif" font-size="14.00">run(): None</text>
<text text-anchor="start" x="278" y="-8.3" font-family="Times,serif" font-size="14.00">write(message: Union[str, bytes, bytearray]): bool</text>
</g>
<!-- minipti.hardware.serial_device.Error -->
<g id="node4" class="node">
<title>minipti.hardware.serial_device.Error</title>
<polygon fill="none" stroke="black" points="662,-153.5 662,-222.5 718,-222.5 718,-153.5 662,-153.5"/>
<text text-anchor="start" x="670" y="-207.3" font-family="Times,serif" font-size="14.00">Error</text>
<polyline fill="none" stroke="black" points="662,-199.5 718,-199.5 "/>
<text text-anchor="start" x="670" y="-184.3" font-family="Times,serif" font-size="14.00">name</text>
<polyline fill="none" stroke="black" points="662,-176.5 718,-176.5 "/>
<text text-anchor="start" x="687.5" y="-161.3" font-family="Times,serif" font-size="14.00"> </text>
</g>
<!-- minipti.hardware.serial_device.Patterns -->
<g id="node5" class="node">
<title>minipti.hardware.serial_device.Patterns</title>
<polygon fill="none" stroke="black" points="736,-138.5 736,-237.5 864,-237.5 864,-138.5 736,-138.5"/>
<text text-anchor="start" x="769.5" y="-222.3" font-family="Times,serif" font-size="14.00">Patterns</text>
<polyline fill="none" stroke="black" points="736,-214.5 864,-214.5 "/>
<text text-anchor="start" x="744" y="-199.3" font-family="Times,serif" font-size="14.00">ERROR</text>
<text text-anchor="start" x="744" y="-184.3" font-family="Times,serif" font-size="14.00">HARDWARE_ID</text>
<text text-anchor="start" x="744" y="-169.3" font-family="Times,serif" font-size="14.00">HEX_VALUE</text>
<polyline fill="none" stroke="black" points="736,-161.5 864,-161.5 "/>
<text text-anchor="start" x="797.5" y="-146.3" font-family="Times,serif" font-size="14.00"> </text>
</g>
</g>
</svg>
