<?xml version="1.0" encoding="UTF-8" standalone="no"?>
<!DOCTYPE svg PUBLIC "-//W3C//DTD SVG 1.1//EN"
 "http://www.w3.org/Graphics/SVG/1.1/DTD/svg11.dtd">
<!-- Generated by graphviz version 2.43.0 (0)
 -->
<!-- Title: classes_. Pages: 1 -->
<svg width="1251pt" height="728pt"
 viewBox="0.00 0.00 1251.00 728.00" xmlns="http://www.w3.org/2000/svg" xmlns:xlink="http://www.w3.org/1999/xlink">
<g id="graph0" class="graph" transform="scale(1 1) rotate(0) translate(4 724)">
<title>classes_.</title>
<polygon fill="white" stroke="transparent" points="-4,4 -4,-724 1247,-724 1247,4 -4,4"/>
<!-- minipti.hardware.tec.Data -->
<g id="node1" class="node">
<title>minipti.hardware.tec.Data</title>
<polygon fill="none" stroke="black" points="0,-174 0,-258 157,-258 157,-174 0,-174"/>
<text text-anchor="start" x="61.5" y="-242.8" font-family="Times,serif" font-size="14.00">Data</text>
<polyline fill="none" stroke="black" points="0,-235 157,-235 "/>
<text text-anchor="start" x="8" y="-219.8" font-family="Times,serif" font-size="14.00">actual_temperature</text>
<text text-anchor="start" x="8" y="-204.8" font-family="Times,serif" font-size="14.00">set_point</text>
<polyline fill="none" stroke="black" points="0,-197 157,-197 "/>
<text text-anchor="start" x="76" y="-181.8" font-family="Times,serif" font-size="14.00"> </text>
</g>
<!-- minipti.hardware.tec.Driver -->
<g id="node2" class="node">
<title>minipti.hardware.tec.Driver</title>
<polygon fill="none" stroke="black" points="445,-317.5 445,-719.5 804,-719.5 804,-317.5 445,-317.5"/>
<text text-anchor="start" x="601.5" y="-704.3" font-family="Times,serif" font-size="14.00">Driver</text>
<polyline fill="none" stroke="black" points="445,-696.5 804,-696.5 "/>
<text text-anchor="start" x="453" y="-681.3" font-family="Times,serif" font-size="14.00">HARDWARE_ID : bytes</text>
<text text-anchor="start" x="453" y="-666.3" font-family="Times,serif" font-size="14.00">NAME : str</text>
<text text-anchor="start" x="453" y="-651.3" font-family="Times,serif" font-size="14.00">PROBE_LASER : int</text>
<text text-anchor="start" x="453" y="-636.3" font-family="Times,serif" font-size="14.00">PUMP_LASER : int</text>
<text text-anchor="start" x="453" y="-621.3" font-family="Times,serif" font-size="14.00">config_path : str</text>
<text text-anchor="start" x="453" y="-606.3" font-family="Times,serif" font-size="14.00">device_id</text>
<text text-anchor="start" x="453" y="-591.3" font-family="Times,serif" font-size="14.00">device_name</text>
<text text-anchor="start" x="453" y="-576.3" font-family="Times,serif" font-size="14.00">probe_laser : Optional[typing.Union[Tec, None]]</text>
<text text-anchor="start" x="453" y="-561.3" font-family="Times,serif" font-size="14.00">probe_laser_enabled</text>
<text text-anchor="start" x="453" y="-546.3" font-family="Times,serif" font-size="14.00">pump_laser : Optional[typing.Union[Tec, None]]</text>
<text text-anchor="start" x="453" y="-531.3" font-family="Times,serif" font-size="14.00">pump_laser_enabled</text>
<text text-anchor="start" x="453" y="-516.3" font-family="Times,serif" font-size="14.00">temperature_element</text>
<text text-anchor="start" x="453" y="-501.3" font-family="Times,serif" font-size="14.00">used_laser : str</text>
<polyline fill="none" stroke="black" points="445,-493.5 804,-493.5 "/>
<text text-anchor="start" x="472.5" y="-479.3" font-family="Times,serif" font-style="italic" font-size="14.00">apply_configuration</text>
<text text-anchor="start" x="613.5" y="-479.3" font-family="Times,serif" font-size="14.00">(): None</text>
<text text-anchor="start" x="472.5" y="-465.3" font-family="Times,serif" font-size="14.00">encode_data(): None</text>
<text text-anchor="start" x="472.5" y="-451.3" font-family="Times,serif" font-size="14.00">load_config(): None</text>
<text text-anchor="start" x="472.5" y="-437.3" font-family="Times,serif" font-size="14.00">save_configuration(): None</text>
<text text-anchor="start" x="472.5" y="-423.3" font-family="Times,serif" font-size="14.00">set_loop_time_value(laser: str)</text>
<text text-anchor="start" x="472.5" y="-409.3" font-family="Times,serif" font-size="14.00">set_max_power_value(laser: str)</text>
<text text-anchor="start" x="472.5" y="-395.3" font-family="Times,serif" font-size="14.00">set_mode(laser: str): None</text>
<text text-anchor="start" x="472.5" y="-381.3" font-family="Times,serif" font-size="14.00">set_pid_d_value(laser: str)</text>
<text text-anchor="start" x="472.5" y="-367.3" font-family="Times,serif" font-size="14.00">set_pid_i_value(laser: str, i: int)</text>
<text text-anchor="start" x="472.5" y="-353.3" font-family="Times,serif" font-size="14.00">set_pid_p_value(laser: str)</text>
<text text-anchor="start" x="472.5" y="-339.3" font-family="Times,serif" font-size="14.00">set_reference_resistor_value(laser: str)</text>
<text text-anchor="start" x="472.5" y="-325.3" font-family="Times,serif" font-size="14.00">set_setpoint_temperature_value(laser: str)</text>
</g>
<!-- minipti.hardware.tec.Mode -->
<g id="node3" class="node">
<title>minipti.hardware.tec.Mode</title>
<polygon fill="none" stroke="black" points="229.5,-15.5 229.5,-99.5 343.5,-99.5 343.5,-15.5 229.5,-15.5"/>
<text text-anchor="start" x="266.5" y="-84.3" font-family="Times,serif" font-size="14.00">Mode</text>
<polyline fill="none" stroke="black" points="229.5,-76.5 343.5,-76.5 "/>
<text text-anchor="start" x="237.5" y="-61.3" font-family="Times,serif" font-size="14.00">cooling : bool</text>
<text text-anchor="start" x="237.5" y="-46.3" font-family="Times,serif" font-size="14.00">heating : bool</text>
<polyline fill="none" stroke="black" points="229.5,-38.5 343.5,-38.5 "/>
<text text-anchor="start" x="284" y="-23.3" font-family="Times,serif" font-size="14.00"> </text>
</g>
<!-- minipti.hardware.tec.Tec -->
<g id="node5" class="node">
<title>minipti.hardware.tec.Tec</title>
<polygon fill="none" stroke="black" points="461,-166.5 461,-265.5 610,-265.5 610,-166.5 461,-166.5"/>
<text text-anchor="start" x="523" y="-250.3" font-family="Times,serif" font-size="14.00">Tec</text>
<polyline fill="none" stroke="black" points="461,-242.5 610,-242.5 "/>
<text text-anchor="start" x="469" y="-227.3" font-family="Times,serif" font-size="14.00">mode</text>
<text text-anchor="start" x="469" y="-212.3" font-family="Times,serif" font-size="14.00">pid</text>
<text text-anchor="start" x="469" y="-197.3" font-family="Times,serif" font-size="14.00">system_parameter</text>
<polyline fill="none" stroke="black" points="461,-189.5 610,-189.5 "/>
<text text-anchor="start" x="533" y="-174.3" font-family="Times,serif" font-size="14.00"> </text>
</g>
<!-- minipti.hardware.tec.Mode&#45;&gt;minipti.hardware.tec.Tec -->
<g id="edge1" class="edge">
<title>minipti.hardware.tec.Mode&#45;&gt;minipti.hardware.tec.Tec</title>
<path fill="none" stroke="black" d="M332.04,-99.58C338.73,-104.99 345.67,-110.29 352.5,-115 383.02,-136.06 418.41,-156.28 449.89,-172.95"/>
<polygon fill="black" stroke="black" points="450.22,-173.13 457.39,-172.37 460.85,-178.7 453.68,-179.46 450.22,-173.13"/>
<text text-anchor="middle" x="421.5" y="-136.8" font-family="Times,serif" font-size="14.00" fill="green">mode</text>
</g>
<!-- minipti.hardware.tec.Status -->
<g id="node4" class="node">
<title>minipti.hardware.tec.Status</title>
<polygon fill="none" stroke="black" points="963.5,-8 963.5,-107 1069.5,-107 1069.5,-8 963.5,-8"/>
<text text-anchor="start" x="993" y="-91.8" font-family="Times,serif" font-size="14.00">Status</text>
<polyline fill="none" stroke="black" points="963.5,-84 1069.5,-84 "/>
<text text-anchor="start" x="971.5" y="-68.8" font-family="Times,serif" font-size="14.00">ERROR : list</text>
<text text-anchor="start" x="971.5" y="-53.8" font-family="Times,serif" font-size="14.00">TEXT : int</text>
<text text-anchor="start" x="971.5" y="-38.8" font-family="Times,serif" font-size="14.00">VALUE : int</text>
<polyline fill="none" stroke="black" points="963.5,-31 1069.5,-31 "/>
<text text-anchor="start" x="1014" y="-15.8" font-family="Times,serif" font-size="14.00"> </text>
</g>
<!-- minipti.hardware.tec.Tec&#45;&gt;minipti.hardware.tec.Driver -->
<g id="edge2" class="edge">
<title>minipti.hardware.tec.Tec&#45;&gt;minipti.hardware.tec.Driver</title>
<path fill="none" stroke="black" d="M518.44,-265.64C516.52,-276.63 516.03,-288.23 518.5,-299 519,-301.18 519.53,-303.36 520.07,-305.54"/>
<polygon fill="black" stroke="black" points="520.1,-305.65 525.53,-310.41 523.23,-317.24 517.8,-312.49 520.1,-305.65"/>
<text text-anchor="middle" x="560.5" y="-287.8" font-family="Times,serif" font-size="14.00" fill="green">probe_laser</text>
</g>
<!-- minipti.hardware.tec.Tec&#45;&gt;minipti.hardware.tec.Driver -->
<g id="edge3" class="edge">
<title>minipti.hardware.tec.Tec&#45;&gt;minipti.hardware.tec.Driver</title>
<path fill="none" stroke="black" d="M591.21,-265.67C595.6,-271.46 599.49,-277.6 602.5,-284 605.81,-291.03 608.75,-298.32 611.35,-305.78"/>
<polygon fill="black" stroke="black" points="611.36,-305.8 617.01,-310.28 615.05,-317.22 609.4,-312.74 611.36,-305.8"/>
<text text-anchor="middle" x="649" y="-287.8" font-family="Times,serif" font-size="14.00" fill="green">pump_laser</text>
</g>
<!-- minipti.hardware.tec.Temperature -->
<g id="node6" class="node">
<title>minipti.hardware.tec.Temperature</title>
<polygon fill="none" stroke="black" points="6,-15.5 6,-99.5 151,-99.5 151,-15.5 6,-15.5"/>
<text text-anchor="start" x="32" y="-84.3" font-family="Times,serif" font-size="14.00">Temperature</text>
<polyline fill="none" stroke="black" points="6,-76.5 151,-76.5 "/>
<text text-anchor="start" x="14" y="-61.3" font-family="Times,serif" font-size="14.00">probe_laser : float</text>
<text text-anchor="start" x="14" y="-46.3" font-family="Times,serif" font-size="14.00">pump_laser : float</text>
<polyline fill="none" stroke="black" points="6,-38.5 151,-38.5 "/>
<text text-anchor="start" x="76" y="-23.3" font-family="Times,serif" font-size="14.00"> </text>
</g>
<!-- minipti.hardware.tec.Temperature&#45;&gt;minipti.hardware.tec.Data -->
<g id="edge4" class="edge">
<title>minipti.hardware.tec.Temperature&#45;&gt;minipti.hardware.tec.Data</title>
<path fill="none" stroke="black" d="M43.61,-99.67C35.06,-114.47 29.59,-131.58 34.5,-148 36.04,-153.16 38.13,-158.3 40.55,-163.3"/>
<polygon fill="black" stroke="black" points="40.62,-163.42 46.99,-166.79 46.33,-173.97 39.96,-170.6 40.62,-163.42"/>
<text text-anchor="middle" x="67.5" y="-136.8" font-family="Times,serif" font-size="14.00" fill="green">set_point</text>
</g>
<!-- minipti.hardware.tec.Temperature&#45;&gt;minipti.hardware.tec.Data -->
<g id="edge5" class="edge">
<title>minipti.hardware.tec.Temperature&#45;&gt;minipti.hardware.tec.Data</title>
<path fill="none" stroke="black" d="M95.74,-99.65C100.17,-114.74 103.05,-132.04 100.5,-148 99.76,-152.63 98.75,-157.37 97.56,-162.09"/>
<polygon fill="black" stroke="black" points="97.55,-162.13 99.79,-168.99 94.32,-173.69 92.08,-166.84 97.55,-162.13"/>
<text text-anchor="middle" x="172" y="-136.8" font-family="Times,serif" font-size="14.00" fill="green">actual_temperature</text>
</g>
<!-- minipti.hardware.tec.TemperatureElement -->
<g id="node7" class="node">
<title>minipti.hardware.tec.TemperatureElement</title>
<polygon fill="none" stroke="black" points="646,-181.5 646,-250.5 815,-250.5 815,-181.5 646,-181.5"/>
<text text-anchor="start" x="654" y="-235.3" font-family="Times,serif" font-size="14.00">TemperatureElement</text>
<polyline fill="none" stroke="black" points="646,-227.5 815,-227.5 "/>
<text text-anchor="start" x="710.5" y="-212.3" font-family="Times,serif" font-size="14.00">name</text>
<polyline fill="none" stroke="black" points="646,-204.5 815,-204.5 "/>
<text text-anchor="start" x="728" y="-189.3" font-family="Times,serif" font-size="14.00"> </text>
</g>
<!-- minipti.hardware.tec.TemperatureElement&#45;&gt;minipti.hardware.tec.Driver -->
<g id="edge6" class="edge">
<title>minipti.hardware.tec.TemperatureElement&#45;&gt;minipti.hardware.tec.Driver</title>
<path fill="none" stroke="black" d="M718.65,-250.6C713.34,-265.66 706.59,-284.77 699.16,-305.84"/>
<polygon fill="black" stroke="black" points="699.09,-306.06 700.86,-313.04 695.09,-317.37 693.32,-310.38 699.09,-306.06"/>
<text text-anchor="middle" x="782" y="-287.8" font-family="Times,serif" font-size="14.00" fill="green">temperature_element</text>
</g>
<!-- minipti.hardware.tec._PID -->
<g id="node8" class="node">
<title>minipti.hardware.tec._PID</title>
<polygon fill="none" stroke="black" points="361.5,-8 361.5,-107 709.5,-107 709.5,-8 361.5,-8"/>
<text text-anchor="start" x="518.5" y="-91.8" font-family="Times,serif" font-size="14.00">_PID</text>
<polyline fill="none" stroke="black" points="361.5,-84 709.5,-84 "/>
<text text-anchor="start" x="369.5" y="-68.8" font-family="Times,serif" font-size="14.00">derivative_value : float</text>
<text text-anchor="start" x="369.5" y="-53.8" font-family="Times,serif" font-size="14.00">integral_value : typing.Annotated[list[float], 2]</text>
<text text-anchor="start" x="369.5" y="-38.8" font-family="Times,serif" font-size="14.00">proportional_value : float</text>
<polyline fill="none" stroke="black" points="361.5,-31 709.5,-31 "/>
<text text-anchor="start" x="533" y="-15.8" font-family="Times,serif" font-size="14.00"> </text>
</g>
<!-- minipti.hardware.tec._PID&#45;&gt;minipti.hardware.tec.Tec -->
<g id="edge7" class="edge">
<title>minipti.hardware.tec._PID&#45;&gt;minipti.hardware.tec.Tec</title>
<path fill="none" stroke="black" d="M535.5,-107.16C535.5,-122.03 535.5,-138.57 535.5,-154.14"/>
<polygon fill="black" stroke="black" points="535.5,-154.37 539.5,-160.37 535.5,-166.37 531.5,-160.37 535.5,-154.37"/>
<text text-anchor="middle" x="547" y="-136.8" font-family="Times,serif" font-size="14.00" fill="green">pid</text>
</g>
<!-- minipti.hardware.tec._SystemParameter -->
<g id="node9" class="node">
<title>minipti.hardware.tec._SystemParameter</title>
<polygon fill="none" stroke="black" points="728,-0.5 728,-114.5 945,-114.5 945,-0.5 728,-0.5"/>
<text text-anchor="start" x="768.5" y="-99.3" font-family="Times,serif" font-size="14.00">_SystemParameter</text>
<polyline fill="none" stroke="black" points="728,-91.5 945,-91.5 "/>
<text text-anchor="start" x="736" y="-76.3" font-family="Times,serif" font-size="14.00">loop_time : float</text>
<text text-anchor="start" x="736" y="-61.3" font-family="Times,serif" font-size="14.00">max_power : float</text>
<text text-anchor="start" x="736" y="-46.3" font-family="Times,serif" font-size="14.00">reference_resistor : float</text>
<text text-anchor="start" x="736" y="-31.3" font-family="Times,serif" font-size="14.00">setpoint_temperature : float</text>
<polyline fill="none" stroke="black" points="728,-23.5 945,-23.5 "/>
<text text-anchor="start" x="834" y="-8.3" font-family="Times,serif" font-size="14.00"> </text>
</g>
<!-- minipti.hardware.tec._SystemParameter&#45;&gt;minipti.hardware.tec.Tec -->
<g id="edge8" class="edge">
<title>minipti.hardware.tec._SystemParameter&#45;&gt;minipti.hardware.tec.Tec</title>
<path fill="none" stroke="black" d="M728.68,-114.56C693.22,-133 654.3,-153.23 620.75,-170.67"/>
<polygon fill="black" stroke="black" points="620.71,-170.7 617.23,-177.01 610.06,-176.23 613.54,-169.92 620.71,-170.7"/>
<text text-anchor="middle" x="752" y="-136.8" font-family="Times,serif" font-size="14.00" fill="green">system_parameter</text>
</g>
<!-- minipti.hardware.tec._TemperatureIndex -->
<g id="node10" class="node">
<title>minipti.hardware.tec._TemperatureIndex</title>
<polygon fill="none" stroke="black" points="1088,-0.5 1088,-114.5 1243,-114.5 1243,-0.5 1088,-0.5"/>
<text text-anchor="start" x="1096" y="-99.3" font-family="Times,serif" font-size="14.00">_TemperatureIndex</text>
<polyline fill="none" stroke="black" points="1088,-91.5 1243,-91.5 "/>
<text text-anchor="start" x="1105.5" y="-76.3" font-family="Times,serif" font-size="14.00">KT : list</text>
<text text-anchor="start" x="1105.5" y="-61.3" font-family="Times,serif" font-size="14.00">NTC : list</text>
<text text-anchor="start" x="1105.5" y="-46.3" font-family="Times,serif" font-size="14.00">PT100B : list</text>
<text text-anchor="start" x="1105.5" y="-31.3" font-family="Times,serif" font-size="14.00">SET_POINT : list</text>
<polyline fill="none" stroke="black" points="1088,-23.5 1243,-23.5 "/>
<text text-anchor="start" x="1163" y="-8.3" font-family="Times,serif" font-size="14.00"> </text>
</g>
</g>
</svg>
